<svg xmlns="http://www.w3.org/2000/svg" width="244" height="42" viewBox="0 0 244 42" fill="none"><path fill-rule="evenodd" clip-rule="evenodd" d="M69.1906 36.6343C69.5466 36.3863 69.8159 36.1717 69.998 35.9895C70.3237 35.6639 70.4863 35.358 70.4863 35.0713C70.4863 34.994 70.4668 34.9282 70.4282 34.8738C70.3857 34.8233 70.3254 34.7982 70.2481 34.7982C70.1164 34.8177 70.0311 34.8272 69.9924 34.8272C69.7367 34.8272 69.5257 34.7422 69.3591 34.5718C69.1923 34.3973 69.1094 34.1747 69.1094 33.9034C69.1094 33.6052 69.1982 33.3631 69.3766 33.1771C69.5546 32.9911 69.7967 32.8984 70.1028 32.8984C70.44 32.8984 70.7225 33.0224 70.951 33.2698C71.1837 33.5143 71.2997 33.8491 71.2997 34.2754C71.2997 34.8912 71.0632 35.4531 70.5908 35.9603C70.2888 36.2821 69.8684 36.5935 69.3302 36.8959L69.1906 36.6343Z" fill="white"></path><path fill-rule="evenodd" clip-rule="evenodd" d="M140.077 36.6343C140.433 36.3863 140.703 36.1717 140.885 35.9895C141.21 35.6639 141.373 35.358 141.373 35.0713C141.373 34.994 141.354 34.9282 141.315 34.8738C141.272 34.8233 141.212 34.7982 141.135 34.7982C141.003 34.8177 140.918 34.8272 140.879 34.8272C140.623 34.8272 140.412 34.7422 140.246 34.5718C140.079 34.3973 139.996 34.1747 139.996 33.9034C139.996 33.6052 140.085 33.3631 140.263 33.1771C140.441 32.9911 140.683 32.8984 140.99 32.8984C141.326 32.8984 141.609 33.0224 141.838 33.2698C142.07 33.5143 142.186 33.8491 142.186 34.2754C142.186 34.8912 141.95 35.4531 141.478 35.9603C141.176 36.2821 140.755 36.5935 140.217 36.8959L140.077 36.6343Z" fill="white"></path><path fill-rule="evenodd" clip-rule="evenodd" d="M61.5352 40.8137C61.8605 40.8022 62.0928 40.7597 62.2322 40.6859C62.4684 40.5619 62.5865 40.326 62.5868 39.977V34.2191C62.5868 33.8702 62.4743 33.636 62.2496 33.5159C62.1179 33.4424 61.8797 33.396 61.5352 33.3765V33.0742H65.6953V33.3765C65.2111 33.3919 64.8875 33.4598 64.7251 33.5799C64.566 33.7001 64.4866 33.9962 64.4866 34.4689V40.0874C64.4866 40.3511 64.5545 40.525 64.69 40.6106C64.8293 40.6959 65.0986 40.7381 65.4977 40.7381C66.2143 40.7381 66.8148 40.5814 67.2987 40.2675C67.787 39.9499 68.2074 39.334 68.5596 38.42H68.9086L68.4261 41.1157H61.5352V40.8137Z" fill="white"></path><path fill-rule="evenodd" clip-rule="evenodd" d="M72.3398 40.8162C72.6265 40.797 72.8568 40.6671 73.0313 40.4271C73.1435 40.2759 73.3044 39.9429 73.5137 39.4277L76.1572 32.9141H76.4884L79.1437 39.1662C79.4419 39.8673 79.6645 40.3205 79.8121 40.526C79.9592 40.7274 80.1682 40.8239 80.4395 40.8162V41.1182H76.5873V40.8162C76.9744 40.8009 77.2283 40.7681 77.3484 40.7176C77.4721 40.6671 77.5341 40.5396 77.5344 40.3338C77.5344 40.2411 77.5031 40.0997 77.4411 39.9099C77.4025 39.7977 77.3502 39.6622 77.2844 39.5033L76.9824 38.7827H74.3096C74.1351 39.2553 74.0227 39.5633 73.9725 39.7064C73.868 40.0126 73.8157 40.2352 73.8157 40.3748C73.8157 40.5452 73.93 40.6692 74.1585 40.7465C74.294 40.7891 74.4974 40.8124 74.7687 40.8162V41.1182H72.3398V40.8162ZM76.8023 38.3121L75.6636 35.5579H75.5647L74.4894 38.3121H76.8023Z" fill="white"></path><path fill-rule="evenodd" clip-rule="evenodd" d="M85.5605 36.6884C85.8976 36.4791 86.0659 35.9988 86.0659 35.2474C86.0659 34.7866 86.0021 34.4222 85.874 34.1551C85.6532 33.7019 85.2505 33.4751 84.6656 33.4751C84.348 33.4751 84.1389 33.5159 84.0383 33.5971C83.9414 33.6747 83.893 33.8043 83.893 33.9865V37.0138C84.6712 37.002 85.2272 36.8936 85.5605 36.6884ZM80.918 40.8137C81.3207 40.7942 81.5955 40.7186 81.7428 40.587C81.8902 40.4556 81.9634 40.1689 81.9637 39.7273V34.4686C81.9637 34.008 81.8766 33.7078 81.7024 33.5681C81.5861 33.4751 81.3245 33.4111 80.918 33.3762V33.0742H84.7468C85.541 33.0742 86.1837 33.1575 86.6759 33.3243C87.6289 33.6611 88.1054 34.2675 88.1054 35.1429C88.1054 35.7898 87.8671 36.299 87.3906 36.6707C87.0266 36.9497 86.641 37.128 86.2345 37.2054L88.6285 40.5929C88.6941 40.6859 88.7637 40.7479 88.8375 40.7789C88.9111 40.806 89.002 40.8234 89.1106 40.8311V41.1157H86.6759L84.2065 37.397H83.893V39.7273C83.893 40.1456 83.9627 40.4284 84.1023 40.5755C84.2414 40.7186 84.5204 40.7984 84.939 40.8137V41.1157H80.918V40.8137Z" fill="white"></path><path fill-rule="evenodd" clip-rule="evenodd" d="M89.199 33.0742H96.3634L96.3749 35.4742H96.0321C95.9197 34.618 95.5981 34.039 95.0676 33.7367C94.7691 33.5702 94.3236 33.4793 93.7311 33.4636V39.7273C93.7311 40.1651 93.8067 40.4556 93.9575 40.5988C94.1128 40.7423 94.4323 40.8137 94.9165 40.8137V41.1157H90.6749V40.8137C91.1396 40.8137 91.4475 40.7423 91.5987 40.5988C91.7536 40.4515 91.831 40.1612 91.831 39.7273V33.4636C91.25 33.4793 90.8048 33.5702 90.4948 33.7367C89.9253 34.0467 89.6038 34.6257 89.5303 35.4742H89.1875L89.199 33.0742Z" fill="white"></path><path fill-rule="evenodd" clip-rule="evenodd" d="M97.0234 41.1157V40.8137C97.3641 40.8022 97.6062 40.7555 97.7497 40.6744C97.9705 40.5504 98.081 40.318 98.081 39.977V34.2191C98.081 33.8702 97.9664 33.636 97.7382 33.5159C97.6062 33.4424 97.368 33.396 97.0234 33.3762V33.0742H103.88V35.4742H103.589C103.438 34.7068 103.18 34.1822 102.816 33.8994C102.456 33.6169 101.798 33.4754 100.841 33.4751C100.476 33.4751 100.244 33.5141 100.143 33.5915C100.047 33.6653 99.9982 33.8141 99.9982 34.0387V36.7927C100.676 36.8006 101.135 36.6787 101.375 36.4269C101.615 36.1712 101.799 35.7065 101.927 35.0325H102.23V39.0532H101.927C101.842 38.3754 101.668 37.8989 101.404 37.6237C101.145 37.3447 100.676 37.2054 99.9982 37.2054V40.0874C99.9982 40.3393 100.062 40.5114 100.19 40.6044C100.322 40.6935 100.589 40.7381 100.992 40.7381C101.751 40.7381 102.371 40.5911 102.851 40.2968C103.331 40.0024 103.758 39.45 104.129 38.6405H104.461L103.978 41.1157H97.0234Z" fill="white"></path><path fill-rule="evenodd" clip-rule="evenodd" d="M110.964 40.5465C111.046 40.6552 111.216 40.7092 111.475 40.7092C112.18 40.7092 112.759 40.4615 113.213 39.9655C113.666 39.466 113.893 38.5091 113.893 37.0953C113.893 36.2547 113.771 35.5326 113.527 34.928C113.132 33.9558 112.465 33.4695 111.528 33.4695C111.218 33.4695 111.017 33.5354 110.924 33.667C110.862 33.7524 110.831 33.9171 110.831 34.161V40.0178C110.842 40.2619 110.887 40.4382 110.964 40.5465ZM107.914 40.8137C108.212 40.7945 108.427 40.7517 108.559 40.6862C108.791 40.566 108.908 40.3472 108.908 40.0296V34.161C108.908 33.8551 108.797 33.6419 108.576 33.5218C108.449 33.4521 108.228 33.404 107.914 33.3765V33.0742H111.551C113.019 33.0742 114.139 33.466 114.91 34.2481C115.611 34.961 115.961 35.9176 115.961 37.1186C115.961 38.1953 115.608 39.1076 114.904 39.8551C114.109 40.6959 113.033 41.116 111.673 41.116H107.914V40.8137Z" fill="white"></path><path fill-rule="evenodd" clip-rule="evenodd" d="M116.531 41.1157V40.8137C116.872 40.8022 117.114 40.7555 117.258 40.6744C117.479 40.5504 117.589 40.318 117.589 39.977V34.2191C117.589 33.8702 117.475 33.636 117.246 33.5159C117.114 33.4424 116.876 33.396 116.531 33.3762V33.0742H123.388V35.4742H123.097C122.946 34.7068 122.688 34.1822 122.324 33.8994C121.964 33.6169 121.306 33.4754 120.349 33.4751C119.985 33.4751 119.752 33.5141 119.652 33.5915C119.554 33.6653 119.506 33.8141 119.506 34.0387V36.7927C120.184 36.8006 120.643 36.6787 120.883 36.4269C121.124 36.1712 121.307 35.7065 121.435 35.0325H121.738V39.0532H121.435C121.35 38.3754 121.176 37.8989 120.912 37.6237C120.653 37.3447 120.184 37.2054 119.506 37.2054V40.0874C119.506 40.3393 119.57 40.5114 119.698 40.6044C119.83 40.6935 120.097 40.7381 120.5 40.7381C121.259 40.7381 121.879 40.5911 122.359 40.2968C122.839 40.0024 123.266 39.45 123.637 38.6405H123.968L123.487 41.1157H116.531Z" fill="white"></path><path fill-rule="evenodd" clip-rule="evenodd" d="M124.488 40.8137C124.814 40.8022 125.046 40.7597 125.186 40.6859C125.422 40.5619 125.54 40.326 125.54 39.977V34.2191C125.54 33.8702 125.428 33.636 125.203 33.5159C125.071 33.4424 124.833 33.396 124.488 33.3765V33.0742H128.649V33.3765C128.164 33.3919 127.841 33.4598 127.678 33.5799C127.519 33.7001 127.44 33.9962 127.44 34.4689V40.0874C127.44 40.3511 127.508 40.525 127.644 40.6106C127.783 40.6959 128.052 40.7381 128.451 40.7381C129.168 40.7381 129.768 40.5814 130.252 40.2675C130.74 39.9499 131.161 39.334 131.513 38.42H131.862L131.38 41.1157H124.488V40.8137Z" fill="white"></path><path fill-rule="evenodd" clip-rule="evenodd" d="M132.43 40.8137C132.755 40.8022 132.988 40.7597 133.127 40.6859C133.363 40.5619 133.481 40.326 133.482 39.977V34.2191C133.482 33.8702 133.369 33.636 133.144 33.5159C133.013 33.4424 132.775 33.396 132.43 33.3765V33.0742H136.59V33.3765C136.106 33.3919 135.783 33.4598 135.62 33.5799C135.461 33.7001 135.381 33.9962 135.381 34.4689V40.0874C135.381 40.3511 135.449 40.525 135.585 40.6106C135.724 40.6959 135.993 40.7381 136.393 40.7381C137.109 40.7381 137.71 40.5814 138.193 40.2675C138.682 39.9499 139.102 39.334 139.454 38.42H139.803L139.321 41.1157H132.43V40.8137Z" fill="white"></path><path fill-rule="evenodd" clip-rule="evenodd" d="M147.224 33.0742V33.3762C146.763 33.3919 146.455 33.4636 146.3 33.5915C146.145 33.7193 146.067 34.0119 146.067 34.4689V38.4489C146.067 39.0532 146.139 39.52 146.282 39.8492C146.542 40.4612 147.04 40.7673 147.776 40.7673C148.69 40.7673 149.308 40.4284 149.629 39.7503C149.807 39.3783 149.897 38.8578 149.897 38.1873V34.5501C149.897 34.1244 149.817 33.8315 149.658 33.6727C149.503 33.5103 149.197 33.4114 148.74 33.3762V33.0742H151.355V33.3762C150.975 33.45 150.724 33.5413 150.6 33.6496C150.479 33.7541 150.419 33.9983 150.419 34.3818V38.1873C150.419 39.1985 150.176 39.9791 149.688 40.5291C149.199 41.0791 148.433 41.354 147.387 41.354C146.019 41.354 145.084 40.9454 144.58 40.1282C144.313 39.6945 144.179 39.1347 144.179 38.4489V34.4689C144.179 34.0195 144.119 33.7367 143.999 33.6207C143.883 33.5044 143.617 33.4232 143.203 33.3762V33.0742H147.224Z" fill="white"></path><path fill-rule="evenodd" clip-rule="evenodd" d="M151.824 40.8137C152.15 40.8022 152.382 40.7597 152.521 40.6859C152.758 40.5619 152.876 40.326 152.876 39.977V34.2191C152.876 33.8702 152.764 33.636 152.539 33.5159C152.407 33.4424 152.169 33.396 151.824 33.3765V33.0742H155.985V33.3765C155.5 33.3919 155.177 33.4598 155.014 33.5799C154.855 33.7001 154.776 33.9962 154.776 34.4689V40.0874C154.776 40.3511 154.844 40.525 154.979 40.6106C155.119 40.6959 155.388 40.7381 155.787 40.7381C156.504 40.7381 157.104 40.5814 157.588 40.2675C158.076 39.9499 158.496 39.334 158.849 38.42H159.198L158.716 41.1157H151.824V40.8137Z" fill="white"></path><path fill-rule="evenodd" clip-rule="evenodd" d="M158.758 33.0742H165.922L165.934 35.4742H165.591C165.479 34.618 165.157 34.039 164.626 33.7367C164.328 33.5702 163.883 33.4793 163.29 33.4636V39.7273C163.29 40.1651 163.365 40.4556 163.516 40.5988C163.671 40.7423 163.991 40.8137 164.475 40.8137V41.1157H160.234V40.8137C160.698 40.8137 161.006 40.7423 161.158 40.5988C161.312 40.4515 161.39 40.1612 161.39 39.7273V33.4636C160.809 33.4793 160.363 33.5702 160.054 33.7367C159.484 34.0467 159.162 34.6257 159.089 35.4742H158.746L158.758 33.0742Z" fill="white"></path><path fill-rule="evenodd" clip-rule="evenodd" d="M166.582 40.8137C166.919 40.8063 167.161 40.7656 167.309 40.6918C167.548 40.5678 167.668 40.3295 167.669 39.977V34.2191C167.669 33.8666 167.554 33.6304 167.326 33.5103C167.186 33.4368 166.938 33.3919 166.582 33.3765V33.0742H170.742V33.3765C170.37 33.3919 170.115 33.4347 169.975 33.5044C169.743 33.6245 169.627 33.8628 169.627 34.2191V39.977C169.627 40.3103 169.72 40.5332 169.906 40.6454C170.092 40.7579 170.37 40.8137 170.742 40.8137V41.1157H166.582V40.8137Z" fill="white"></path><path fill-rule="evenodd" clip-rule="evenodd" d="M171.184 40.8137C171.637 40.8099 171.931 40.7307 172.067 40.5755C172.202 40.4166 172.27 40.1804 172.27 39.8666V34.2191C172.27 33.8938 172.193 33.6806 172.038 33.5799C171.882 33.4754 171.608 33.4075 171.213 33.3765V33.0742H174.211L176.552 38.5823H176.651L178.981 33.0742H181.979V33.3765C181.576 33.4075 181.301 33.4831 181.154 33.603C181.007 33.7193 180.933 34.008 180.933 34.4689V39.7273C180.933 40.1651 181.007 40.4515 181.154 40.587C181.301 40.7228 181.576 40.7984 181.979 40.8137V41.1157H178.028V40.8137C178.38 40.8022 178.646 40.744 178.824 40.6395C179.002 40.5312 179.091 40.2968 179.091 39.9363V34.1202H179.004L176.087 41.1157H175.768L172.822 34.2599H172.77V39.6458C172.77 40.0411 172.843 40.3295 172.991 40.5117C173.138 40.6938 173.463 40.7945 173.967 40.8137V41.1157H171.184V40.8137Z" fill="white"></path><path fill-rule="evenodd" clip-rule="evenodd" d="M189.867 34.0566C190.684 34.8507 191.092 35.8734 191.093 37.1246C191.093 38.3758 190.684 39.3985 189.867 40.1923C189.069 40.967 188.071 41.3544 186.874 41.3544C185.604 41.3544 184.568 40.9301 183.766 40.0819C183.018 39.2842 182.645 38.3194 182.645 37.1884C182.645 35.9413 183.035 34.9169 183.818 34.1147C184.608 33.3011 185.627 32.8945 186.874 32.8945C188.075 32.8945 189.073 33.2822 189.867 34.0566ZM188.71 39.3672C188.889 38.7941 188.978 38.0466 188.978 37.1246C188.978 35.8581 188.788 34.903 188.408 34.26C188.032 33.6173 187.521 33.2958 186.874 33.2955C185.976 33.2955 185.359 33.8319 185.027 34.9051C184.853 35.4746 184.765 36.2144 184.765 37.1246C184.765 38.0502 184.854 38.798 185.032 39.3672C185.362 40.4247 185.976 40.9535 186.874 40.9535C187.765 40.9535 188.377 40.4247 188.71 39.3672Z" fill="white"></path><path fill-rule="evenodd" clip-rule="evenodd" d="M194.891 38.3403H195.233C195.427 39.2274 195.739 39.8722 196.169 40.2752C196.603 40.6779 197.099 40.8796 197.656 40.8796C198.199 40.8796 198.584 40.742 198.813 40.4668C199.041 40.1881 199.155 39.8955 199.156 39.5894C199.156 39.2331 199.035 38.9428 198.795 38.7179C198.637 38.5708 198.317 38.3792 197.837 38.1428L197.064 37.7593C196.297 37.3796 195.757 37.0041 195.443 36.6321C195.129 36.2601 194.972 35.801 194.972 35.2551C194.972 34.6738 195.179 34.1318 195.594 33.6281C196.012 33.1247 196.651 32.8729 197.511 32.8726C197.949 32.8726 198.371 32.9387 198.778 33.0701C199.189 33.2021 199.423 33.2676 199.481 33.2676C199.613 33.2676 199.703 33.231 199.754 33.1575C199.804 33.0801 199.845 32.9795 199.876 32.8555H200.23V35.4467H199.899C199.74 34.8465 199.46 34.3293 199.057 33.8953C198.658 33.4616 198.172 33.2446 197.598 33.2446C197.195 33.2446 196.876 33.355 196.64 33.5758C196.407 33.7928 196.291 34.0579 196.291 34.3718C196.291 34.7476 196.401 35.0284 196.622 35.2144C196.839 35.4042 197.321 35.6832 198.069 36.051L198.964 36.4924C199.363 36.6902 199.68 36.909 199.917 37.1493C200.358 37.5984 200.579 38.1448 200.579 38.7878C200.579 39.388 200.341 39.9558 199.864 40.4901C199.392 41.0207 198.633 41.2858 197.587 41.2864C197.346 41.2864 197.102 41.2628 196.855 41.2164C196.611 41.1739 196.369 41.106 196.128 41.013L195.896 40.9259C195.842 40.9106 195.789 40.8987 195.739 40.8911C195.689 40.8796 195.646 40.8736 195.611 40.8736C195.487 40.8736 195.402 40.9106 195.355 40.9841C195.309 41.0534 195.268 41.1541 195.233 41.2864H194.891V38.3403Z" fill="white"></path><path fill-rule="evenodd" clip-rule="evenodd" d="M201.32 40.8162C201.607 40.797 201.837 40.6671 202.012 40.4271C202.124 40.2759 202.285 39.9429 202.494 39.4277L205.138 32.9141H205.469L208.124 39.1662C208.422 39.8673 208.645 40.3205 208.792 40.526C208.939 40.7274 209.149 40.8239 209.42 40.8162V41.1182H205.568V40.8162C205.955 40.8009 206.208 40.7681 206.329 40.7176C206.453 40.6671 206.515 40.5396 206.515 40.3338C206.515 40.2411 206.483 40.0997 206.422 39.9099C206.383 39.7977 206.331 39.6622 206.265 39.5033L205.963 38.7827H203.29C203.116 39.2553 203.003 39.5633 202.953 39.7064C202.848 40.0126 202.796 40.2352 202.796 40.3748C202.796 40.5452 202.91 40.6692 203.139 40.7465C203.274 40.7891 203.478 40.8124 203.749 40.8162V41.1182H201.32V40.8162ZM205.782 38.3121L204.644 35.5579H204.545L203.47 38.3121H205.782Z" fill="white"></path><path fill-rule="evenodd" clip-rule="evenodd" d="M209.91 40.8137C210.236 40.8022 210.468 40.7597 210.607 40.6859C210.844 40.5619 210.961 40.326 210.962 39.977V34.2191C210.962 33.8702 210.85 33.636 210.625 33.5159C210.493 33.4424 210.255 33.396 209.91 33.3765V33.0742H214.07V33.3765C213.586 33.3919 213.263 33.4598 213.1 33.5799C212.941 33.7001 212.862 33.9962 212.862 34.4689V40.0874C212.862 40.3511 212.929 40.525 213.065 40.6106C213.204 40.6959 213.474 40.7381 213.873 40.7381C214.589 40.7381 215.19 40.5814 215.674 40.2675C216.162 39.9499 216.582 39.334 216.935 38.42H217.284L216.801 41.1157H209.91V40.8137Z" fill="white"></path><path fill-rule="evenodd" clip-rule="evenodd" d="M221.841 33.0742V33.3762C221.38 33.3919 221.072 33.4636 220.917 33.5915C220.762 33.7193 220.685 34.0119 220.685 34.4689V38.4489C220.685 39.0532 220.756 39.52 220.9 39.8492C221.159 40.4612 221.657 40.7673 222.393 40.7673C223.307 40.7673 223.925 40.4284 224.247 39.7503C224.425 39.3783 224.514 38.8578 224.514 38.1873V34.5501C224.514 34.1244 224.434 33.8315 224.276 33.6727C224.121 33.5103 223.815 33.4114 223.358 33.3762V33.0742H225.972V33.3762C225.593 33.45 225.341 33.5413 225.217 33.6496C225.097 33.7541 225.037 33.9983 225.037 34.3818V38.1873C225.037 39.1985 224.793 39.9791 224.305 40.5291C223.816 41.0791 223.05 41.354 222.004 41.354C220.637 41.354 219.701 40.9454 219.197 40.1282C218.93 39.6945 218.796 39.1347 218.796 38.4489V34.4689C218.796 34.0195 218.736 33.7367 218.616 33.6207C218.5 33.5044 218.235 33.4232 217.82 33.3762V33.0742H221.841Z" fill="white"></path><path fill-rule="evenodd" clip-rule="evenodd" d="M226.531 33.0742H233.695L233.707 35.4742H233.364C233.252 34.618 232.93 34.039 232.399 33.7367C232.101 33.5702 231.656 33.4793 231.063 33.4636V39.7273C231.063 40.1651 231.138 40.4556 231.29 40.5988C231.445 40.7423 231.764 40.8137 232.248 40.8137V41.1157H228.007V40.8137C228.472 40.8137 228.78 40.7423 228.931 40.5988C229.085 40.4515 229.163 40.1612 229.163 39.7273V33.4636C228.582 33.4793 228.136 33.5702 227.827 33.7367C227.257 34.0467 226.936 34.6257 226.862 35.4742H226.52L226.531 33.0742Z" fill="white"></path><path fill-rule="evenodd" clip-rule="evenodd" d="M241.546 34.0566C242.364 34.8507 242.772 35.8734 242.772 37.1246C242.772 38.3758 242.364 39.3985 241.546 40.1923C240.748 40.967 239.751 41.3544 238.554 41.3544C237.283 41.3544 236.248 40.9301 235.446 40.0819C234.698 39.2842 234.324 38.3194 234.324 37.1884C234.324 35.9413 234.715 34.9169 235.498 34.1147C236.288 33.3011 237.307 32.8945 238.554 32.8945C239.755 32.8945 240.752 33.2822 241.546 34.0566ZM240.39 39.3672C240.568 38.7941 240.657 38.0466 240.658 37.1246C240.658 35.8581 240.468 34.903 240.088 34.26C239.712 33.6173 239.201 33.2958 238.554 33.2955C237.655 33.2955 237.039 33.8319 236.706 34.9051C236.532 35.4746 236.445 36.2144 236.445 37.1246C236.445 38.0502 236.534 38.798 236.712 39.3672C237.042 40.4247 237.655 40.9535 238.554 40.9535C239.445 40.9535 240.057 40.4247 240.39 39.3672Z" fill="white"></path><path fill-rule="evenodd" clip-rule="evenodd" d="M64.7611 5.03403C67.2673 2.32706 70.4502 0.898438 74.2598 0.898438C75.8384 0.898438 77.3925 1.22437 78.8463 1.85115C80.4251 2.32706 81.3776 2.6279 81.6784 2.80327C82.1543 2.6279 82.4555 2.47763 82.6054 2.32706C82.9314 2.00142 83.107 1.52492 83.257 0.898438H84.36V10.0716H83.4076C82.4555 8.01646 81.6784 6.43727 80.5754 5.33458C78.9714 3.27977 76.9414 2.17679 74.7109 2.17679C72.355 2.17679 70.6255 3.27977 69.4981 5.48485C68.3951 7.71562 67.9189 10.698 67.7689 14.833C67.9189 17.9663 68.3951 20.8233 69.3475 23.5049C70.4502 26.0365 72.355 27.3145 75.3374 27.3145C76.9414 27.3145 78.019 26.9886 78.5203 26.2115C78.8463 25.8859 78.9714 25.2594 78.9714 24.4573V20.3471C78.9714 19.0941 78.6709 18.292 77.8938 17.9663C77.5682 17.8158 76.6158 17.6404 75.212 17.6404V16.7131H87.994V17.6404C86.7407 17.6404 85.7886 17.9663 85.3124 18.4673C85.0116 18.9185 84.8362 19.8709 84.6856 21.1492V26.2115C84.0591 26.663 82.6054 27.1392 80.7257 27.7656C78.9714 28.2667 76.9414 28.5678 74.5604 28.5678C70.4502 28.5678 67.2673 27.1392 64.7611 24.4573C62.3803 21.9263 61.2773 18.5928 61.2773 14.833C61.2773 10.8734 62.5554 7.71562 64.7611 5.03403Z" fill="white"></path><path fill-rule="evenodd" clip-rule="evenodd" d="M87.6953 26.8384C88.7729 26.8384 89.5998 26.663 90.051 26.5127C90.8531 26.0365 91.179 25.2595 91.179 24.1317V5.15927C91.179 3.90602 90.8531 3.27983 90.051 2.80362C89.7253 2.62796 88.9483 2.47769 87.6953 2.47769V1.375H100.803V2.47769C99.5246 2.47769 98.7479 2.47769 98.2717 2.80362C97.6449 3.12926 97.3193 3.90602 97.169 5.15927V24.1317C97.3193 25.0844 97.6449 25.886 98.1214 26.3625C98.7479 26.663 99.5246 26.8384 100.803 26.8384V27.766H87.6953V26.8384Z" fill="white"></path><path fill-rule="evenodd" clip-rule="evenodd" d="M115.19 1.375V2.47769C113.786 2.47769 112.834 2.62796 112.183 3.12926C111.882 3.4301 111.556 4.38222 111.556 5.96142V19.0942C111.556 20.999 111.731 22.5525 112.183 23.6809C113.135 25.7109 114.714 26.663 116.944 26.663C119.952 26.663 121.857 25.5854 122.934 23.355C123.411 22.1017 123.736 20.3474 123.736 18.2923V6.26226C123.736 4.85873 123.586 3.90602 122.934 3.4301C122.483 2.80362 121.531 2.47769 120.077 2.47769V1.375H128.322V2.47769C127.22 2.62796 126.418 2.9539 125.942 3.27983C125.616 3.58038 125.465 4.38222 125.465 5.66057V18.2923C125.465 21.4498 124.664 24.1317 123.11 25.886C121.531 27.6157 119.15 28.5679 115.666 28.5679C111.405 28.5679 108.398 27.3146 106.819 24.633C106.017 23.1793 105.566 21.2996 105.566 19.0942V5.96142C105.566 4.53279 105.391 3.58038 104.914 3.27983C104.613 2.80362 103.811 2.47769 102.383 2.47769V1.375H115.19Z" fill="white"></path><path fill-rule="evenodd" clip-rule="evenodd" d="M139.844 25.7109C140.17 26.2119 140.797 26.513 141.574 26.513C142.076 26.513 142.526 26.4879 142.927 26.4127V27.766H130.371V26.8384C131.324 26.8384 132.101 26.6633 132.426 26.513C133.228 26.0368 133.679 25.2598 133.529 24.1317V5.15957C133.679 4.08168 133.228 3.27983 132.602 2.80362C132.276 2.62796 131.473 2.47798 130.371 2.47798V1.375H141.75C142.151 1.375 142.551 1.40009 142.927 1.40009V2.72834C142.551 2.62796 142.1 2.57807 141.574 2.62796C140.797 2.47798 140.321 2.62796 139.995 2.9539C139.694 3.27983 139.544 3.75604 139.544 4.53309V13.2297C141.022 13.2297 142.125 13.1045 142.927 12.8288V14.8086C142.076 14.5078 140.947 14.3826 139.544 14.5078V24.3071C139.544 24.9338 139.694 25.4098 139.844 25.7109ZM142.927 26.4127C143.98 26.2119 144.782 25.7611 145.208 25.0844C146.01 23.9817 146.336 22.5528 146.336 20.8236C146.336 17.9667 145.534 16.0867 143.98 15.2848C143.679 15.0843 143.328 14.9338 142.927 14.8086V12.8288C143.429 12.6531 143.829 12.4276 144.131 12.1267C144.907 11.35 145.384 9.92164 145.384 7.84145C145.384 6.43762 145.082 5.15957 144.581 4.08168C144.281 3.4301 143.755 2.9288 142.927 2.72834V1.40009C144.732 1.50018 146.11 1.77592 147.288 2.17714C150.121 3.12956 151.549 5.03439 151.374 7.71597C151.549 9.29487 150.922 10.5481 149.819 11.4752C148.692 12.4276 147.439 13.0794 146.16 13.38V13.7059C147.614 14.0316 148.692 14.5078 149.819 15.1345C151.524 16.2871 152.577 17.8161 152.652 19.8461V20.2722C152.652 20.3474 152.626 20.4227 152.626 20.4977C152.626 20.573 152.652 20.6483 152.652 20.6982V21.25C152.552 23.1043 151.624 24.6333 149.819 25.8863C148.191 27.0642 145.91 27.6907 142.927 27.766V26.4127Z" fill="white"></path><path fill-rule="evenodd" clip-rule="evenodd" d="M153.582 26.8384C154.684 26.8384 155.487 26.663 155.938 26.5127C156.74 26.0365 157.065 25.2595 157.065 24.1317V5.15927C157.065 3.90602 156.74 3.27983 155.938 2.80362C155.487 2.62796 154.86 2.47769 153.582 2.47769V1.375H166.564V2.47769C165.436 2.47769 164.659 2.47769 164.183 2.80362C163.557 3.12926 163.231 3.90602 163.056 5.15927V24.1317C163.231 25.0844 163.381 25.886 164.008 26.3625C164.659 26.663 165.436 26.8384 166.564 26.8384V27.766H153.582V26.8384Z" fill="white"></path><path fill-rule="evenodd" clip-rule="evenodd" d="M169.398 26.8384C170.501 26.8384 171.128 26.663 171.604 26.5127C172.23 26.0365 172.732 25.2595 172.556 24.1317V5.15927C172.732 4.08168 172.406 3.27983 171.604 2.80362C171.278 2.62796 170.501 2.47769 169.398 2.47769V1.375H182.205V2.47769C180.626 2.47769 179.674 2.62796 179.198 3.12926C178.722 3.4301 178.571 4.38222 178.396 5.96141V24.4573C178.571 25.2595 178.722 25.886 179.047 26.2119C179.524 26.3625 180.301 26.5127 181.579 26.663C183.784 26.5127 185.689 26.0365 187.118 25.0844C188.521 23.9814 189.799 21.9263 190.902 18.9188H192.005L190.426 27.766H169.398V26.8384Z" fill="white"></path><path fill-rule="evenodd" clip-rule="evenodd" d="M192.477 27.766V26.8384C193.579 26.8384 194.356 26.6633 194.682 26.3625C195.484 25.8863 195.81 25.2598 195.81 24.1317V5.15957C195.81 4.08168 195.484 3.27983 194.682 2.80362C194.356 2.62796 193.579 2.47798 192.477 2.47798V1.375H213.504V9.29487H212.552C212.251 6.76326 211.449 5.03439 210.196 4.08168C209.244 3.12956 207.188 2.62796 204.181 2.80362C203.078 2.62796 202.426 2.80362 202.126 3.12956C201.8 3.27983 201.649 3.75604 201.649 4.53309V13.7059C203.704 13.5553 205.108 13.2297 205.76 12.4276C206.562 11.4752 207.188 10.0716 207.489 7.84145H208.441V21.1496H207.489C207.339 18.7685 206.712 17.1896 205.935 16.3875C205.108 15.4599 203.704 14.9589 201.649 14.9589V24.4576C201.649 25.2598 201.8 25.8863 202.126 26.2119C202.577 26.3625 203.379 26.513 204.657 26.6633C207.013 26.513 208.918 26.0368 210.346 25.0844C211.775 24.1317 213.178 22.4025 214.281 19.721H215.233L213.83 27.766H192.477Z" fill="white"></path><path fill-rule="evenodd" clip-rule="evenodd" d="M230.024 28.5693C226.115 28.5439 222.831 27.1407 220.325 24.4588C218.094 21.7772 216.816 18.5944 216.816 14.9601C216.816 10.8749 218.094 7.39152 220.45 4.85991C222.982 2.20313 226.115 0.75 230.024 0.75V2.17833C227.217 2.20313 225.363 3.95769 224.26 7.39152C223.784 9.29605 223.458 11.652 223.458 14.6595C223.458 17.6419 223.784 20.1983 224.26 22.1032C225.363 25.5367 227.217 27.2659 230.024 27.3161V28.5693ZM239.423 4.70964C241.954 7.21585 243.232 10.5493 243.232 14.6595C243.232 18.77 241.954 22.1032 239.423 24.7848C236.917 27.3161 233.884 28.5693 230.125 28.5693H230.024V27.3161H230.125C232.957 27.3161 234.836 25.5866 235.789 22.1032C236.415 20.1983 236.591 17.6419 236.591 14.6595C236.591 10.5493 236.114 7.39152 234.836 5.33612C233.759 3.13074 232.155 2.17833 230.125 2.17833H230.024V0.75H230.125C233.884 0.75 236.917 2.00296 239.423 4.70964Z" fill="white"></path><path fill-rule="evenodd" clip-rule="evenodd" d="M4.40148 38.1366C4.40148 38.1366 4.66416 37.6114 4.87405 37.2439C5.27665 36.526 5.90694 35.5633 6.74713 34.6006C8.41 32.6751 11.0008 30.6969 14.5893 30.6796C15.377 30.6796 16.7948 30.802 17.7228 31.7998C17.7228 31.7998 18.0203 32.1149 18.1079 32.2024C18.3879 32.535 18.5979 32.8851 18.5979 32.8851C18.8606 33.3927 19.158 34.303 18.6154 35.2133C18.4578 35.5284 18.2303 35.7208 17.9676 35.8611C17.9152 35.8961 17.5477 36.0536 16.2523 36.4036C15.2194 36.6836 13.574 37.0514 11.5958 37.6814C8.63754 38.7318 5.83682 39.7821 5.15406 40.027C5.10159 40.062 3.75386 40.6047 3.19368 40.9725C3.12372 41.0249 4.01637 38.8543 4.40148 38.1366Z" fill="#16132A"></path><path fill-rule="evenodd" clip-rule="evenodd" d="M31.9016 41.0423C31.9016 41.0423 29.9936 40.7448 27.7179 40.1146C25.4599 39.502 22.1165 38.4165 21.1012 36.9986C20.7512 36.5435 19.9457 34.6706 22.2565 33.4803C22.5366 33.3052 22.9568 33.1302 23.5518 32.9903C24.3044 32.7975 25.2498 32.8677 26.5277 33.4627C26.6502 33.5328 26.9477 33.6027 27.9456 34.303C28.996 35.0907 30.2038 36.3335 32.1991 38.6791L32.9344 39.5545L34.3174 41.3574L33.0568 41.2173L31.9016 41.0423Z" fill="#16132A"></path><path fill-rule="evenodd" clip-rule="evenodd" d="M0.00770428 32.1326C0.0251951 31.87 0.0428421 31.4674 0.112805 30.9772C0.217906 30.0145 0.462778 28.7367 1.00546 27.4588C2.03836 25.0433 4.12148 22.6099 8.21745 22.4173C6.78211 21.3671 5.64427 19.9143 5.6969 17.9538C5.71424 16.5534 6.15198 15.5906 6.60705 14.8204C6.81709 14.4528 7.02714 14.1201 7.2197 13.8052C7.37711 13.5073 7.49986 13.245 7.55218 12.9825C7.67493 12.2121 7.86732 10.8817 8.18247 9.60392C8.49762 8.34364 8.98767 7.03074 9.82801 6.50555C10.7207 5.94537 12.401 5.61289 14.1692 6.31299C15.3945 6.8032 16.4097 7.34573 17.1275 7.76598C17.5301 7.99351 17.705 8.09846 17.8627 8.2034C18.0203 7.57342 18.3702 6.83818 19.0004 6.12044C19.9632 4.89514 21.3988 4.00233 23.3242 3.80993C23.3242 3.80993 23.5341 3.79228 23.7794 3.79228C24.5495 2.58448 25.3722 1.51676 25.9499 1.18412C27.2626 0.413901 28.4356 0.781521 29.1357 1.41166C29.5208 1.7443 30.0986 2.53201 30.5887 3.28458C31.0962 3.23211 31.7966 3.16215 32.2341 3.1445C32.9868 3.12716 33.9845 3.17964 34.8599 3.40717C35.2098 3.52977 35.455 3.63471 35.7702 3.7573C36.9253 4.19504 37.9058 4.63247 38.5008 5.01758C40.1638 6.15542 40.6539 7.9234 40.8466 8.86868C41.0216 9.72635 40.4613 10.3392 40.0588 10.6541C40.0062 10.6891 39.9363 10.7416 39.8838 10.7767C40.2338 10.8992 40.6888 11.0742 41.1616 11.3194C42.1242 11.8445 43.3146 12.7723 43.5074 14.2777C43.6123 15.0654 43.2447 15.7655 42.7894 16.2909C42.3344 16.8509 41.7217 17.3236 41.1441 17.7087C40.444 18.1813 39.7262 18.5839 39.2885 18.8114C39.8137 18.8289 40.4263 18.8464 41.1091 18.8641C41.7567 18.8814 42.5271 18.899 43.2797 18.9165C43.4899 18.9165 43.6997 18.9515 43.8925 19.0215C44.0324 19.0739 44.3124 19.249 44.3824 19.5991C44.4525 19.9493 44.3124 20.2469 44.1725 20.4218C44.0499 20.5969 43.8747 20.737 43.7347 20.8244C43.5946 20.9295 43.4547 20.9995 43.3321 21.0695C43.2272 21.1221 43.1222 21.1746 43.1222 21.1746C40.8641 21.9098 37.8881 25.6733 37.468 26.181C36.7853 27.844 35.56 29.1218 34.3172 29.9971C32.3741 31.3973 30.3436 31.9575 30.221 31.9926L29.941 32.0626L29.731 32.0801H29.3634C28.4706 32.0976 22.1162 32.2377 20.5408 32.2726C19.6307 32.2901 19.018 31.87 18.6153 31.4325C18.2477 31.0122 18.1077 30.5573 18.0727 30.4522L18.0551 30.3996V30.3822C17.9676 29.9971 17.3199 27.4588 15.8322 25.1832L15.7096 25.1483C15.6047 25.1306 15.4819 25.1133 15.342 25.0956C15.3945 25.3408 15.4644 25.6909 15.4819 26.0059C15.552 26.6011 15.2369 27.1261 14.8168 27.5289C14.3792 27.9315 13.7666 28.3166 13.0138 28.6842C12.1735 29.0693 11.1056 29.5419 9.95045 30.0145C8.81277 30.4872 7.65728 31.0122 6.71215 31.5549C4.2789 32.9554 2.16079 34.4958 1.21551 35.2136L0.00770428 36.1063C0.00770428 36.1063 -0.00963036 32.6053 0.00770428 32.1326Z" fill="#16132A"></path><path fill-rule="evenodd" clip-rule="evenodd" d="M46.2907 40.7272C46.2907 40.7272 45.6429 40.8148 44.7326 40.8498C43.8051 40.8848 42.6146 40.8848 41.5819 40.7272C39.6039 40.4647 37.4158 39.642 36.8032 39.3793C33.0045 37.6114 32.1292 35.4933 32.1468 34.0229C32.1643 33.6028 32.3043 33.2001 32.3744 33.0777C33.057 31.8698 34.1424 31.6948 34.9127 31.6773C34.9127 31.6423 34.9127 31.5897 34.9301 31.5372C34.9301 31.3097 34.8776 30.4344 35.4904 29.5767C35.5602 29.4542 35.8928 29.0165 36.488 28.754C36.7507 28.6665 37.1183 28.5614 37.5734 28.5265C39.674 28.4565 44.1901 29.4542 46.6759 35.0558C47.0434 35.8084 47.4636 36.6486 47.7786 37.6114L48.7939 40.4824L46.2907 40.7272Z" fill="#16132A"></path><path fill-rule="evenodd" clip-rule="evenodd" d="M42.9121 23.0826L42.9471 23.03C43.3147 22.2424 43.9273 21.7697 44.6274 21.5072L44.6977 21.1745C44.8025 20.6319 45.5554 19.5816 49.0563 20.1243C49.5114 20.2118 49.9665 20.3167 50.5267 20.4919C53.2399 21.4021 55.5506 23.3101 57.1785 24.9557C58.8064 26.6009 59.769 28.0364 59.7868 28.0539L61.2395 29.9795H61.2746L58.9465 30.0671C55.8832 30.1895 47.6032 30.4695 45.2927 30.172C42.3869 29.7694 40.479 27.8613 40.479 26.461C40.479 25.2357 41.2316 23.8702 42.807 23.5202L42.9121 23.0826Z" fill="#16132A"></path><path fill-rule="evenodd" clip-rule="evenodd" d="M35.1048 32.3074C35.1048 32.3074 38.8334 34.4957 42.2468 36.3686C44.75 37.839 46.6757 39.2395 47.0431 39.6069C47.0431 39.6069 38.2907 38.3641 34.7023 35.5284C33.1269 34.2155 33.3896 32.43 35.1048 32.3074Z" fill="#86BC25"></path><path fill-rule="evenodd" clip-rule="evenodd" d="M33.1443 33.0955C33.1443 33.0955 32.0238 35.546 37.2404 37.8567C40.5662 39.3447 44.9075 39.8174 46.2204 40.1149C46.2204 40.1149 43.6647 40.43 41.6865 40.1149C39.7961 39.8697 37.643 39.0822 37.0477 38.802C33.4068 37.1216 32.7242 35.1784 32.7592 34.0406C32.7942 33.393 33.1443 33.0955 33.1443 33.0955Z" fill="#009640"></path><path fill-rule="evenodd" clip-rule="evenodd" d="M31.9716 8.85095C31.6741 8.51832 31.3766 8.27329 31.0964 8.02826C30.4663 7.50307 29.9238 7.1531 29.6434 6.99552C29.3634 7.24055 29.0834 7.55554 28.8207 7.88818L28.7333 7.99328C28.9083 8.11572 29.3283 8.41337 29.7485 8.78099C30.3087 9.23606 30.8514 9.79624 31.2716 10.409C31.6216 10.8815 31.8142 11.2841 31.9716 11.8617V8.85095ZM30.1686 6.5228C30.5013 6.2253 30.7463 6.05024 30.7463 6.05024C30.7463 6.05024 31.2716 6.10271 31.9716 6.27777V7.9583C31.2538 7.29302 30.5188 6.76799 30.1686 6.5228ZM31.9716 11.8617C31.9892 11.9493 32.0067 12.0368 32.0417 12.1419C32.2692 13.0345 32.3742 13.9623 32.4093 14.3824C32.8994 14.1899 33.3545 13.9623 33.7747 13.7348C33.7747 13.0522 33.6523 10.9691 32.2516 9.18359C32.1466 9.06116 32.0592 8.95606 31.9716 8.85095V11.8617ZM31.9716 6.27777C32.5319 6.43519 33.197 6.66288 33.7747 7.0305C34.9475 7.87069 35.9978 9.39364 36.1029 12.1242C36.1029 12.1242 35.4552 12.7195 34.3873 13.3847C34.37 12.772 34.2298 10.7765 33.0919 9.20108C32.7594 8.7635 32.3742 8.34341 31.9716 7.9583V6.27777Z" fill="url(#paint0_linear_402_9654)"></path><path fill-rule="evenodd" clip-rule="evenodd" d="M27.0351 11.4765C27.21 10.1637 27.7527 9.32352 28.3305 8.53574C28.838 8.85094 30.151 9.76122 30.8336 10.8814C30.5535 10.6716 29.9236 10.2862 29.1184 10.3387C28.2254 10.3737 27.4902 10.9689 27.0351 11.4765Z" fill="url(#paint1_linear_402_9654)"></path><path fill-rule="evenodd" clip-rule="evenodd" d="M28.2956 14.715C27.4729 14.6274 26.9654 14.5049 26.9654 14.5049V12.7368C27.2279 12.1943 27.9281 11.0914 29.1534 10.9688C30.1162 10.8814 31.1839 11.9491 31.3766 12.1592C31.6741 13.1396 31.7268 14.1898 31.7616 14.6101C30.764 14.8549 28.7683 14.75 28.2956 14.715Z" fill="url(#paint2_linear_402_9654)"></path><path fill-rule="evenodd" clip-rule="evenodd" d="M9.49507 23.5901C9.79272 23.5549 10.0381 23.5376 10.1605 23.5376C10.5105 23.695 11.2106 24.0277 12.1733 24.3252C13.6788 24.7804 14.6767 24.938 14.6942 24.938C14.7115 25.0604 14.8343 25.6031 14.8866 26.0581C14.9391 26.7584 14.2216 27.406 12.7512 28.1238C11.9285 28.5089 10.8431 28.964 9.70527 29.4542C8.54994 29.9442 7.37696 30.4519 6.39685 31.0296C3.94626 32.4474 1.81051 34.0054 0.830401 34.7231C1.18053 32.2899 2.84325 24.1502 9.49507 23.5901Z" fill="#86BC25"></path><path fill-rule="evenodd" clip-rule="evenodd" d="M0.620352 32.5526C0.620352 32.5701 0.305205 22.7498 9.12791 23.0125C9.12791 23.0125 8.79527 23.0298 8.25243 23.1526C6.97467 23.4326 4.54142 24.4128 2.7561 27.2835C2.4761 27.7213 2.19593 28.2113 1.9509 28.754C1.47818 29.8217 1.16319 30.4695 0.620352 32.5526Z" fill="#009640"></path><path fill-rule="evenodd" clip-rule="evenodd" d="M4.82158 38.6967C4.82158 38.7142 7.91995 31.3273 14.5893 31.2923C15.3595 31.2923 16.3747 31.3971 17.1098 32.2023C17.1098 32.2023 16.2521 32.0975 14.9744 32.2023C13.3638 32.3426 11.8235 32.7277 9.96794 34.163C6.78211 36.6138 5.52168 37.9966 4.82158 38.6967Z" fill="#009640"></path><path fill-rule="evenodd" clip-rule="evenodd" d="M16.077 35.8086C17.4249 35.4585 17.6876 35.3185 17.6876 35.3185C17.8626 35.2134 17.9852 35.091 18.0725 34.9159C18.5101 34.1982 18.2474 33.5331 18.0026 33.1653C17.8626 32.9727 17.7575 32.9554 17.7575 32.9554C17.7575 32.9554 17.0749 32.6053 15.2543 32.7978C13.6439 32.9554 12.2261 33.1829 10.4229 34.6008C7.18465 36.9814 4.89148 39.4846 4.92646 39.4671C5.62672 39.187 8.42759 38.1367 11.4032 37.104C13.3989 36.4739 15.0618 36.1062 16.077 35.8086Z" fill="#86BC25"></path><path fill-rule="evenodd" clip-rule="evenodd" d="M8.14722 13.0872C8.28731 12.3346 8.46237 11.0042 8.76003 9.74382C9.11 8.46605 9.54774 7.41582 10.1779 7.03071C10.8956 6.57548 12.3661 6.26049 13.9415 6.89063C15.1318 7.36319 16.1121 7.88839 16.8122 8.29099C17.2673 8.55351 17.4248 8.65861 17.5999 8.76355C17.5999 8.76355 15.7095 10.269 15.0091 12.8772C14.7816 13.7525 14.1339 15.433 15.5168 19.1264C15.7095 19.6166 15.9194 20.1067 16.1821 20.5094C16.1821 20.5094 14.9743 19.5115 13.9064 18.7588C12.8387 18.0062 12.051 17.796 11.3858 18.5664C10.773 19.249 10.9657 20.0365 11.1758 20.2118C14.6066 23.03 15.3594 24.4128 15.3594 24.4128C13.6615 24.1678 6.20449 22.7325 6.30944 17.9712C6.32693 16.6931 6.71204 15.8355 7.11448 15.1354C7.34218 14.7503 7.55207 14.4351 7.74478 14.1025C7.91984 13.7875 8.09491 13.4548 8.14722 13.0872Z" fill="#82D0F5"></path><path fill-rule="evenodd" clip-rule="evenodd" d="M17.7051 9.55116C17.7051 9.55116 13.1189 13.5598 16.6199 19.9841C16.6199 19.9841 19.3506 16.6757 22.4139 16.0106C22.4139 16.0106 17.8976 13.7874 17.7051 9.55116Z" fill="#F087B6"></path><path fill-rule="evenodd" clip-rule="evenodd" d="M23.3767 4.42223C23.3767 4.42223 22.7817 5.38501 22.2915 6.34778C21.5738 7.80077 21.2413 8.86849 22.1164 10.6015C22.8167 11.8093 23.3594 12.9296 24.7073 14.2774C24.7073 14.2774 25.3198 15.4152 24.3921 15.783C24.3921 15.783 23.6044 15.783 23.4818 15.818C23.4818 15.818 23.2191 15.7478 22.6941 15.4329C21.3287 14.6275 18.6681 12.9296 18.3529 9.7613C18.3529 9.7613 18.038 8.11576 19.4731 6.50535C20.331 5.38501 21.6264 4.59729 23.3767 4.42223Z" fill="#009FE3"></path><path fill-rule="evenodd" clip-rule="evenodd" d="M22.3789 7.69559C22.8864 6.33006 25.1972 2.32154 26.265 1.6914C27.3152 1.09625 28.1905 1.37625 28.7507 1.88396C29.3282 2.39166 30.5187 4.2296 31.0262 5.17473C31.0262 5.17473 31.0262 5.27983 30.9912 5.4374C29.8885 5.26249 28.2605 5.27983 27.0702 5.52501C26.3174 5.68243 25.6348 5.98009 25.0746 6.31272C24.3219 6.75015 23.7617 7.32797 23.3417 7.78305C22.6239 8.64088 22.3089 9.34098 22.3089 9.34098C22.204 8.83343 22.1688 8.32573 22.3789 7.69559Z" fill="#F087B6"></path><path fill-rule="evenodd" clip-rule="evenodd" d="M21.5214 36.5612C21.3111 36.2636 20.7861 34.8983 22.1513 34.4081C22.1513 34.4081 23.5344 34.0404 25.0748 34.9682C26.405 35.756 29.2935 38.6092 31.2366 39.8871C31.5166 40.0797 31.7792 40.2897 32.0068 40.4122C32.0068 40.4122 23.3768 39.1169 21.5214 36.5612Z" fill="#86BC25"></path><path fill-rule="evenodd" clip-rule="evenodd" d="M31.7265 39.0818C29.7483 36.7187 28.593 35.5457 27.5952 34.8106C26.6325 34.1455 26.3698 34.0754 26.2648 34.0229C25.0745 33.4627 24.2868 33.4278 23.7092 33.6028C23.324 33.6728 23.0965 33.7954 23.0965 33.7954C23.7266 33.9005 24.5144 33.953 25.5123 34.5305C27.0702 35.4409 30.8162 39.1694 32.4616 39.9395L31.7265 39.0818Z" fill="#009640"></path><path fill-rule="evenodd" clip-rule="evenodd" d="M22.6417 10.1989C22.6417 10.1989 23.8845 5.52506 29.8711 5.94515C29.8711 5.94515 29.0659 6.61043 28.1732 7.69579C27.403 8.71089 26.6677 9.6037 26.4577 11.3016C26.3351 12.1242 26.3351 13.1222 26.3701 14.3651C26.3701 14.3651 25.8977 14.3301 25.425 14.05C25.0573 13.8399 24.7074 13.4548 24.4447 13.1047C22.7468 10.8115 22.6417 10.1989 22.6417 10.1989Z" fill="url(#paint3_linear_402_9654)"></path><path fill-rule="evenodd" clip-rule="evenodd" d="M25.5123 14.7676C25.5123 14.7676 25.5998 15.3979 25.3547 15.7479C25.3547 15.7479 28.5229 15.5555 31.4464 17.1133C31.4464 17.1133 36.1027 14.6275 36.0852 12.9647C36.0852 12.9647 35.6651 13.2973 35.1049 13.6823C33.9321 14.365 32.3567 15.2928 31.1312 15.4329C31.1312 15.4329 30.2209 15.5728 27.858 15.2928C26.8775 15.1877 25.5123 14.7676 25.5123 14.7676Z" fill="#F087B6"></path><path fill-rule="evenodd" clip-rule="evenodd" d="M30.9911 3.84471C30.9911 3.84471 33.1269 3.56455 34.6671 4.01978C35.0173 4.10723 35.2448 4.22982 35.56 4.33477C36.7153 4.75486 37.6431 5.17495 38.1331 5.52508C39.6035 6.52284 40.0587 8.09826 40.2514 8.99107C40.4613 10.0063 38.956 10.584 38.956 10.584C38.956 10.584 38.8684 10.1989 38.6583 9.62121C37.9932 7.83574 36.2952 4.73737 31.499 4.70239L30.9911 3.84471Z" fill="#82D0F5"></path><path fill-rule="evenodd" clip-rule="evenodd" d="M38.308 16.2556C37.8881 16.9207 37.3279 17.4109 36.7153 17.7259C35.4723 18.3562 34.0194 18.5488 33.7918 18.4087C33.4943 18.2861 33.0742 17.9886 32.1289 17.4634C35.4372 15.4504 36.6277 14.1375 36.7326 12.9647C36.8729 11.8618 36.5227 10.4615 36.3826 9.84882C36.0675 8.65851 35.2097 7.01297 33.6342 6.22542C33.1267 5.9629 32.4091 5.71756 31.6037 5.54265L31.6387 5.3326C31.8489 5.3326 32.094 5.35009 32.4439 5.36759C33.0917 5.42021 33.9495 5.61277 34.8072 6.03286C36.5227 6.85555 38.3432 8.67616 38.6408 12.7197C38.7458 14.47 38.7984 15.4854 38.308 16.2556Z" fill="#82D0F5"></path><path fill-rule="evenodd" clip-rule="evenodd" d="M39.0609 11.179C39.0609 11.179 39.3059 12.4218 39.3236 13.8048C39.4284 15.4677 39.131 16.4479 38.3432 17.2357C38.3432 17.2357 38.6583 17.7609 38.5884 18.4085L38.676 18.426C38.956 18.3034 39.8486 17.8483 40.8114 17.2007C41.9141 16.4654 43.0345 15.4502 42.8947 14.3473C42.597 11.9492 39.0609 11.179 39.0609 11.179Z" fill="#F087B6"></path><path fill-rule="evenodd" clip-rule="evenodd" d="M16.7074 20.8944C16.7074 20.8944 19.7708 16.4831 24.3395 16.3782C28.7507 16.2731 29.9587 16.9032 33.2143 18.8288C33.2143 18.8288 33.6171 19.1264 34.3522 19.0388C36.2777 18.7938 37.2931 18.0935 37.8708 17.6035C37.8708 17.6035 38.2384 18.1636 37.6782 19.0213C37.2931 19.6689 36.7506 20.1766 36.2427 20.7543C36.2253 20.7543 35.6128 21.507 34.8424 22.3122C33.0219 24.1853 30.0635 26.741 26.0375 26.6009C26.0375 26.6009 23.4118 26.7585 21.9064 26.4433C21.9064 26.4433 20.9086 24.9905 19.2282 23.1699C18.2655 22.1197 16.7074 20.8944 16.7074 20.8944Z" fill="#82D0F5"></path><path fill-rule="evenodd" clip-rule="evenodd" d="M22.5014 27.1787C22.5014 27.1787 23.2542 28.1065 23.9194 28.334C24.8296 28.649 28.9432 29.2092 30.0635 31.3973C30.0635 31.3973 32.0591 30.8722 33.9671 29.5069C35.1574 28.649 36.3129 27.4412 36.9431 25.8835C36.9431 25.8835 40.2515 21.4722 42.9121 20.5795C42.9121 20.5795 43.8747 20.1769 43.7874 19.7042C43.7699 19.6342 43.6124 19.5291 43.2797 19.5291C42.5095 19.5116 41.7391 19.4942 41.0917 19.4767C39.2537 19.4242 38.1858 19.4065 38.1858 19.4065C38.1858 19.4065 37.5207 20.3169 37.048 20.7894C36.5928 21.2621 33.547 25.2532 29.9586 26.5486C28.3832 27.1262 26.65 27.2137 25.3023 27.2663C23.6219 27.3188 22.5014 27.1787 22.5014 27.1787Z" fill="#009FE3"></path><path fill-rule="evenodd" clip-rule="evenodd" d="M46.9206 38.5217C42.807 31.2046 38.8158 30.4343 37.083 30.1194C35.35 29.7867 35.5426 31.8873 35.5426 31.8873C35.56 31.8873 39.2361 34.0579 42.6494 35.9133C45.4152 37.6114 46.833 38.5918 47.1833 38.9592L46.9206 38.5217Z" fill="#86BC25"></path><path fill-rule="evenodd" clip-rule="evenodd" d="M36.4352 29.4892C36.4352 29.4892 36.8203 29.1915 37.6082 29.1391C39.4986 29.1214 43.7523 29.9793 46.1152 35.3183C46.4655 36.0536 46.8856 36.8761 47.2008 37.8039C47.2008 37.8039 46.7281 37.1038 46.0628 36.141C44.9251 34.4255 43.297 32.2549 41.5291 31.2395C40.6014 30.6795 39.621 30.1543 38.8684 29.8918C37.3455 29.3491 36.4352 29.4892 36.4352 29.4892Z" fill="#009640"></path><path fill-rule="evenodd" clip-rule="evenodd" d="M11.8762 18.916C12.1211 18.671 12.3311 18.6533 12.5413 18.706C12.6464 18.7235 12.7689 18.7761 12.874 18.8284C12.9964 18.881 13.1014 18.951 13.189 19.0035C13.8368 19.3711 16.0423 21.1741 16.0423 21.1741L16.0771 21.2092C16.0771 21.2092 18.1253 22.4695 21.5213 26.8633C21.7838 27.1782 22.2739 28.211 23.5693 28.9112C23.9719 29.0338 23.9719 28.9988 24.1646 29.0338C28.7856 30.0141 29.346 31.4669 29.346 31.4669C28.4706 31.4669 22.099 31.642 20.5409 31.6771C19.1407 31.6946 18.6855 30.3992 18.6505 30.2591C18.5805 29.8214 17.8453 27.0033 16.1822 24.5876C15.3244 23.3271 14.2392 22.172 13.3291 21.2966C12.4714 20.4914 11.7711 19.9138 11.6136 19.7912C11.5434 19.6862 11.5434 19.2661 11.8762 18.916Z" fill="#F087B6"></path><path fill-rule="evenodd" clip-rule="evenodd" d="M45.3802 29.5416C42.5969 29.174 41.109 27.406 41.109 26.4609C41.109 25.428 41.7391 24.3251 43.052 24.0976C43.4021 24.1325 45.9052 24.3952 48.251 24.9379C49.1262 25.148 51.8569 25.9182 53.7124 26.7584C55.813 27.6861 57.7912 28.7364 58.9463 29.384L59.0513 29.4541H58.9288C55.813 29.5766 47.6209 29.8567 45.3802 29.5416Z" fill="#86BC25"></path><path fill-rule="evenodd" clip-rule="evenodd" d="M43.4371 23.4853C43.7521 23.5379 46.1151 23.8006 48.4609 24.3781C49.336 24.5707 52.067 25.3584 53.9224 26.1636C55.5503 26.8986 57.1082 27.704 58.2461 28.3167C58.2461 28.3167 55.0426 25.3409 52.3293 23.7303C51.8043 23.4678 51.4017 23.2403 50.8415 22.9951C47.7783 21.7874 44.5397 21.1222 43.4896 23.2927L43.4371 23.4853Z" fill="#009640"></path><path fill-rule="evenodd" clip-rule="evenodd" d="M45.3102 21.2795C45.3102 21.2795 45.5027 20.1943 48.9687 20.7368C49.3886 20.8068 49.8089 20.9119 50.3339 21.0693C55.463 22.8023 59.2789 28.4039 59.2789 28.4039C59.2789 28.4039 56.6181 25.9183 53.3274 23.6252C52.3294 23.0125 51.997 22.7675 50.1064 22.0497C48.7235 21.5422 47.2882 21.2094 45.8703 21.2269L45.3102 21.2795Z" fill="#86BC25"></path><defs><linearGradient id="paint0_linear_402_9654" x1="30.6373" y1="0.75" x2="30.6373" y2="41.3574" gradientUnits="userSpaceOnUse"><stop stop-color="#F8E0AC"></stop><stop offset="1" stop-color="#D4AF37"></stop></linearGradient><linearGradient id="paint1_linear_402_9654" x1="30.6373" y1="0.75" x2="30.6373" y2="41.3574" gradientUnits="userSpaceOnUse"><stop stop-color="#F8E0AC"></stop><stop offset="1" stop-color="#D4AF37"></stop></linearGradient><linearGradient id="paint2_linear_402_9654" x1="30.6373" y1="0.75" x2="30.6373" y2="41.3574" gradientUnits="userSpaceOnUse"><stop stop-color="#F8E0AC"></stop><stop offset="1" stop-color="#D4AF37"></stop></linearGradient><linearGradient id="paint3_linear_402_9654" x1="30.6373" y1="0.75" x2="30.6373" y2="41.3574" gradientUnits="userSpaceOnUse"><stop stop-color="#F8E0AC"></stop><stop offset="1" stop-color="#D4AF37"></stop></linearGradient></defs></svg>