<?xml version="1.0" encoding="UTF-8"?> <!-- Generator: Adobe Illustrator 25.1.0, SVG Export Plug-In . SVG Version: 6.00 Build 0) --> <svg xmlns="http://www.w3.org/2000/svg" xmlns:xlink="http://www.w3.org/1999/xlink" version="1.1" id="Livello_1" x="0px" y="0px" viewBox="0 0 841.89 295.58" style="enable-background:new 0 0 841.89 295.58;" xml:space="preserve"> <style type="text/css"> .st0{fill:#4E267F;} .st1{fill:#823F91;} </style> <g> <g> <path class="st0" d="M94.92,156.29l0.42,12.8h-1.78c-0.35-2.8-1.14-5.12-2.37-6.95c-1.22-1.83-2.51-2.97-3.84-3.43 c-1.34-0.45-3.6-0.68-6.78-0.68H70.54v21.77h4.81c3.11,0,5.17-0.52,6.19-1.57c1.02-1.05,1.53-3.15,1.53-6.3h1.89v18.1h-1.89 c0-2.2-0.22-3.93-0.66-5.21c-0.44-1.27-1.1-2.14-1.97-2.61c-0.87-0.47-2.57-0.7-5.09-0.7h-4.81v12.76c0,4.04,0.1,6.68,0.3,7.93 c0.2,1.25,0.71,2.18,1.53,2.78c0.82,0.61,2.4,0.91,4.75,0.91h1.74v1.74H55.01v-1.74h1.59c2.2,0,3.72-0.28,4.56-0.83 c0.85-0.55,1.39-1.42,1.63-2.59c0.24-1.17,0.36-3.91,0.36-8.2v-25.18c0-4.09-0.12-6.73-0.36-7.91c-0.24-1.19-0.74-2.01-1.51-2.46 c-0.77-0.45-2.46-0.68-5.06-0.68h-0.91v-1.74H94.92z"></path> <path class="st0" d="M121.47,204.8c0-1.11,0.4-2.06,1.19-2.86c0.79-0.8,1.75-1.19,2.86-1.19c1.14,0,2.1,0.4,2.9,1.19 c0.79,0.79,1.19,1.75,1.19,2.86c0,1.14-0.4,2.1-1.21,2.9c-0.81,0.8-1.77,1.19-2.88,1.19c-1.14,0-2.1-0.41-2.88-1.23 C121.87,206.84,121.47,205.89,121.47,204.8z"></path> <path class="st0" d="M212.51,192.53l-0.38,15.11h-43.62v-1.74h1.51c2.2,0,3.72-0.28,4.56-0.83c0.85-0.55,1.39-1.42,1.63-2.59 c0.24-1.17,0.36-3.91,0.36-8.2v-25.18c0-4.09-0.12-6.73-0.36-7.91c-0.24-1.19-0.75-2.01-1.51-2.46c-0.77-0.45-2.46-0.68-5.05-0.68 h-1.14v-1.74h24.65v1.74h-2.27c-2.52,0-4.18,0.21-4.96,0.63c-0.78,0.42-1.31,1.19-1.57,2.33c-0.26,1.14-0.4,3.84-0.4,8.1v26.88 c0,3.71,0.1,6.03,0.3,6.97c0.2,0.93,0.75,1.66,1.65,2.18c0.9,0.52,2.82,0.78,5.77,0.78h3.9c3.16,0,5.5-0.28,7.02-0.83 c1.53-0.55,2.98-1.77,4.35-3.63c1.38-1.87,2.63-4.83,3.77-8.9H212.51z"></path> <path class="st0" d="M290.37,192.53l-0.38,15.11h-43.62v-1.74h1.51c2.2,0,3.72-0.28,4.56-0.83c0.85-0.55,1.39-1.42,1.63-2.59 c0.24-1.17,0.36-3.91,0.36-8.2v-25.18c0-4.09-0.12-6.73-0.36-7.91c-0.24-1.19-0.75-2.01-1.51-2.46c-0.77-0.45-2.46-0.68-5.05-0.68 h-1.14v-1.74h24.65v1.74h-2.27c-2.52,0-4.18,0.21-4.96,0.63c-0.78,0.42-1.31,1.19-1.57,2.33c-0.26,1.14-0.4,3.84-0.4,8.1v26.88 c0,3.71,0.1,6.03,0.3,6.97c0.2,0.93,0.75,1.66,1.65,2.18c0.9,0.52,2.82,0.78,5.77,0.78h3.9c3.16,0,5.5-0.28,7.02-0.83 c1.53-0.55,2.98-1.77,4.35-3.63c1.38-1.87,2.63-4.83,3.77-8.9H290.37z"></path> <path class="st0" d="M324.04,158.04v-1.74h23.48v1.74h-1.1c-2.52,0-4.18,0.21-4.96,0.63c-0.78,0.42-1.31,1.19-1.57,2.33 c-0.26,1.14-0.4,3.84-0.4,8.1v25.18c0,4.04,0.1,6.68,0.28,7.93c0.19,1.25,0.69,2.18,1.51,2.78c0.82,0.61,2.39,0.91,4.71,0.91h1.51 v1.74h-23.48v-1.74h1.51c2.2,0,3.72-0.28,4.56-0.83c0.85-0.55,1.38-1.42,1.61-2.59c0.23-1.17,0.34-3.91,0.34-8.2v-25.18 c0-4.09-0.11-6.73-0.34-7.91c-0.23-1.19-0.73-2.01-1.51-2.46c-0.78-0.45-2.47-0.68-5.07-0.68H324.04z"></path> <path class="st0" d="M508.31,180c5.83,0.43,10.16,1.88,12.99,4.35c2.83,2.47,4.24,5.57,4.24,9.28c0,3.23-0.96,6.01-2.88,8.35 c-1.92,2.33-4.37,3.86-7.36,4.58c-2.99,0.72-7,1.08-12.02,1.08h-20.14v-1.74h1.97c2.2,0,3.72-0.28,4.56-0.83 c0.84-0.55,1.38-1.42,1.61-2.59c0.23-1.17,0.34-3.91,0.34-8.2v-24.99c0-4.16-0.12-6.85-0.36-8.06c-0.24-1.21-0.75-2.04-1.51-2.5 c-0.77-0.45-2.45-0.68-5.05-0.68h-0.98v-1.74l8.44-0.23l9.62-0.3c14.03,0,21.05,4.04,21.05,12.12c0,3.33-1.21,6.01-3.62,8.03 C516.78,177.93,513.16,179.29,508.31,180z M499.03,179.28c0.63,0.02,1.16,0.04,1.59,0.04c5.45,0,9.18-0.86,11.17-2.57 c1.99-1.72,2.99-4.49,2.99-8.33c0-2.68-0.39-4.75-1.17-6.21c-0.78-1.46-1.96-2.59-3.52-3.39c-1.57-0.8-4.24-1.19-8.03-1.19 c-0.98,0-2,0.04-3.03,0.11V179.28z M499.03,181.13v11.44c0,4.87,0.09,7.96,0.26,9.28c0.18,1.31,0.65,2.31,1.42,2.99 c0.77,0.68,2.29,1.02,4.56,1.02c4.04,0,7.07-1.04,9.09-3.11c2.02-2.07,3.03-5.17,3.03-9.31c0-4.24-1.14-7.36-3.43-9.37 c-2.28-2.01-6.3-3.01-12.06-3.01C501,181.06,500.04,181.08,499.03,181.13z"></path> <path class="st0" d="M563.98,181.63c0-7.93,2.65-14.29,7.95-19.08c5.3-4.8,11.91-7.19,19.84-7.19c8,0,14.69,2.37,20.05,7.12 c5.36,4.75,8.05,11.22,8.05,19.42c0,7.95-2.57,14.39-7.71,19.31c-5.14,4.92-11.9,7.38-20.28,7.38c-8.15,0-14.84-2.46-20.07-7.38 C566.59,196.28,563.98,189.76,563.98,181.63z M572.65,181.89c0,8.25,1.65,14.45,4.94,18.59c3.29,4.14,8.24,6.21,14.82,6.21 c5.78,0,10.35-2.07,13.71-6.21c3.36-4.14,5.04-10.31,5.04-18.52c0-7.98-1.65-14.09-4.96-18.35c-3.31-4.25-8.1-6.38-14.39-6.38 c-6.18,0-10.92,2.08-14.22,6.23C574.3,167.62,572.65,173.76,572.65,181.89z"></path> <path class="st0" d="M702.57,208.81l-36.31-48.13v35.63c0,2.95,0.14,4.9,0.44,5.83c0.29,0.93,1.12,1.79,2.48,2.57 c1.36,0.78,3.41,1.17,6.13,1.17v1.74h-19.16v-1.74c2.45-0.18,4.32-0.63,5.6-1.34c1.29-0.72,2.05-1.5,2.29-2.33 c0.24-0.83,0.36-2.8,0.36-5.91v-27.23c0-3.94-0.18-6.58-0.55-7.91c-0.37-1.34-0.95-2.2-1.74-2.57c-0.8-0.38-2.57-0.57-5.32-0.57 v-1.74h15.15l30.41,40.17v-30.71c0-2.27-0.23-3.86-0.7-4.77c-0.47-0.91-1.42-1.63-2.86-2.16c-1.44-0.53-3.17-0.8-5.19-0.8v-1.74 h18.63v1.74c-2.17,0.18-3.88,0.59-5.13,1.25c-1.25,0.66-2.04,1.45-2.39,2.37c-0.34,0.92-0.51,2.48-0.51,4.68v42.48H702.57z"></path> <path class="st0" d="M775.32,188.71h-19.5l-1.33,3.26c-1.97,4.72-2.95,7.8-2.95,9.24c0,1.54,0.52,2.71,1.57,3.5 c1.05,0.79,2.39,1.19,4.03,1.19v1.74h-15.26v-1.74c2.27-0.35,3.96-1.16,5.07-2.4c1.11-1.25,2.45-3.88,4.01-7.9 c0.13-0.38,0.73-1.84,1.82-4.39l14.92-35.63h1.48l17.15,40.78l2.35,5.38c0.53,1.21,1.24,2.17,2.14,2.86 c0.9,0.69,2.24,1.13,4.03,1.31v1.74h-20.18v-1.74c2.47,0,4.15-0.18,5.02-0.55c0.87-0.37,1.31-1.09,1.31-2.18 c0-0.55-0.58-2.21-1.74-4.96L775.32,188.71z M774.67,187l-9.09-21.89L756.54,187H774.67z"></path> </g> <g> <path class="st0" d="M55.04,246.38c0-3.09,1.03-5.58,3.1-7.45c2.07-1.87,4.65-2.81,7.75-2.81c3.12,0,5.73,0.93,7.83,2.78 c2.09,1.85,3.14,4.38,3.14,7.58c0,3.1-1,5.62-3.01,7.54c-2.01,1.92-4.64,2.88-7.92,2.88c-3.18,0-5.79-0.96-7.83-2.88 C56.06,252.1,55.04,249.55,55.04,246.38z M58.43,246.49c0,3.22,0.64,5.64,1.93,7.26c1.29,1.62,3.21,2.42,5.79,2.42 c2.26,0,4.04-0.81,5.35-2.42c1.31-1.62,1.97-4.03,1.97-7.23c0-3.11-0.65-5.5-1.94-7.16c-1.29-1.66-3.16-2.49-5.62-2.49 c-2.41,0-4.27,0.81-5.55,2.43C59.07,240.91,58.43,243.31,58.43,246.49z"></path> <path class="st0" d="M109.15,257l-14.18-18.79v13.91c0,1.15,0.06,1.91,0.17,2.28c0.11,0.36,0.44,0.7,0.97,1 c0.53,0.31,1.33,0.46,2.39,0.46v0.68h-7.48v-0.68c0.96-0.07,1.69-0.24,2.19-0.52c0.5-0.28,0.8-0.58,0.89-0.91 c0.09-0.33,0.14-1.09,0.14-2.31v-10.63c0-1.54-0.07-2.57-0.21-3.09c-0.14-0.52-0.37-0.86-0.68-1.01c-0.31-0.15-1-0.22-2.08-0.22 v-0.68h5.91l11.87,15.68v-11.99c0-0.89-0.09-1.51-0.27-1.86c-0.18-0.35-0.55-0.63-1.12-0.84c-0.56-0.21-1.24-0.31-2.03-0.31v-0.68 h7.27v0.68c-0.85,0.07-1.52,0.23-2,0.49c-0.49,0.26-0.8,0.56-0.93,0.92c-0.13,0.36-0.2,0.97-0.2,1.83V257H109.15z"></path> <path class="st0" d="M126.87,246.38c0-3.09,1.03-5.58,3.1-7.45c2.07-1.87,4.65-2.81,7.75-2.81c3.12,0,5.73,0.93,7.83,2.78 c2.09,1.85,3.14,4.38,3.14,7.58c0,3.1-1,5.62-3.01,7.54c-2.01,1.92-4.64,2.88-7.92,2.88c-3.18,0-5.79-0.96-7.83-2.88 C127.89,252.1,126.87,249.55,126.87,246.38z M130.26,246.49c0,3.22,0.64,5.64,1.93,7.26c1.29,1.62,3.21,2.42,5.79,2.42 c2.26,0,4.04-0.81,5.35-2.42c1.31-1.62,1.97-4.03,1.97-7.23c0-3.11-0.65-5.5-1.94-7.16c-1.29-1.66-3.16-2.49-5.62-2.49 c-2.41,0-4.26,0.81-5.55,2.43C130.9,240.91,130.26,243.31,130.26,246.49z"></path> <path class="st0" d="M184.35,256.54h-5.39c-0.96-0.67-2.42-2.42-4.39-5.26c-0.63-0.91-1.29-1.78-1.97-2.61 c-0.68-0.83-1.15-1.34-1.4-1.52c-0.26-0.18-0.66-0.27-1.2-0.27h-0.8v4.45c0,1.58,0.04,2.61,0.11,3.1 c0.07,0.49,0.27,0.85,0.59,1.09c0.32,0.24,0.93,0.35,1.84,0.35h0.96v0.68h-9.59v-0.68h0.65c0.86,0,1.45-0.11,1.78-0.33 c0.33-0.22,0.54-0.55,0.63-1.01c0.09-0.46,0.13-1.52,0.13-3.2v-9.83c0-1.6-0.04-2.63-0.13-3.09c-0.09-0.46-0.29-0.78-0.59-0.96 c-0.31-0.18-0.97-0.27-1.98-0.27h-0.34v-0.68l2.87-0.15c1.91-0.09,3.43-0.13,4.55-0.13c1.91,0,3.47,0.18,4.66,0.53 c1.2,0.35,2.17,0.94,2.9,1.74c0.74,0.81,1.11,1.77,1.11,2.9c0,1.31-0.48,2.43-1.45,3.36c-0.97,0.93-2.39,1.5-4.26,1.73 c0.84,0.4,2.19,1.86,4.05,4.37c1.52,2.04,2.71,3.38,3.58,4.01c0.87,0.63,1.89,0.97,3.07,1V256.54z M169.19,246.19 c0.74-0.02,1.5-0.05,2.29-0.09c0.79-0.04,1.47-0.15,2.05-0.33c0.58-0.18,1.05-0.44,1.41-0.78c0.36-0.34,0.64-0.79,0.85-1.34 c0.21-0.55,0.31-1.23,0.31-2.04c0-1.41-0.35-2.54-1.06-3.38c-0.7-0.85-2.24-1.27-4.6-1.27c-0.36,0-0.78,0.02-1.26,0.06V246.19z"></path> <path class="st0" d="M209.58,249.15h-7.61l-0.52,1.27c-0.77,1.84-1.15,3.04-1.15,3.61c0,0.6,0.2,1.06,0.61,1.37 c0.41,0.31,0.93,0.47,1.57,0.47v0.68h-5.96v-0.68c0.89-0.14,1.55-0.45,1.98-0.94c0.43-0.49,0.96-1.52,1.57-3.08 c0.05-0.15,0.29-0.72,0.71-1.71l5.82-13.91h0.58l6.7,15.92l0.92,2.1c0.21,0.47,0.49,0.84,0.84,1.12c0.35,0.27,0.87,0.44,1.57,0.51 v0.68h-7.88v-0.68c0.97,0,1.62-0.07,1.96-0.21c0.34-0.14,0.51-0.43,0.51-0.85c0-0.22-0.23-0.86-0.68-1.94L209.58,249.15z M209.33,248.48l-3.55-8.54l-3.53,8.54H209.33z"></path> <path class="st0" d="M247.76,257l-14.18-18.79v13.91c0,1.15,0.06,1.91,0.17,2.28c0.11,0.36,0.44,0.7,0.97,1 c0.53,0.31,1.33,0.46,2.39,0.46v0.68h-7.48v-0.68c0.96-0.07,1.69-0.24,2.19-0.52c0.5-0.28,0.8-0.58,0.89-0.91 c0.09-0.33,0.14-1.09,0.14-2.31v-10.63c0-1.54-0.07-2.57-0.21-3.09c-0.14-0.52-0.37-0.86-0.68-1.01c-0.31-0.15-1-0.22-2.08-0.22 v-0.68h5.91l11.87,15.68v-11.99c0-0.89-0.09-1.51-0.27-1.86c-0.18-0.35-0.55-0.63-1.12-0.84c-0.56-0.21-1.24-0.31-2.03-0.31v-0.68 h7.27v0.68c-0.85,0.07-1.52,0.23-2,0.49c-0.49,0.26-0.8,0.56-0.93,0.92c-0.13,0.36-0.2,0.97-0.2,1.83V257H247.76z"></path> <path class="st0" d="M264.86,256.54v-0.52l12.93-18.85h-6.24c-1.34,0-2.22,0.05-2.62,0.16c-0.41,0.11-0.88,0.5-1.41,1.17 c-0.53,0.68-0.94,1.54-1.21,2.59h-0.65l0.65-4.61h14.9v0.68l-12.8,18.68h6.12c2.08,0,3.4-0.16,3.96-0.49 c0.56-0.33,1.07-0.89,1.53-1.68c0.46-0.8,0.81-1.58,1.04-2.34h0.68l-0.68,5.19H264.86z"></path> <path class="st0" d="M312.56,250.3h0.71l-0.43,6.24h-16.6v-0.68h0.41c0.99,0,1.64-0.13,1.93-0.4c0.29-0.27,0.48-0.6,0.55-1.01 c0.08-0.41,0.12-1.45,0.12-3.13v-9.83c0-1.53-0.04-2.53-0.13-3.02s-0.28-0.82-0.58-1.01c-0.3-0.19-0.93-0.29-1.9-0.29v-0.68h14.32 l0.47,5h-0.69c-0.32-1.4-0.7-2.39-1.16-2.98c-0.46-0.59-1-0.96-1.63-1.11c-0.63-0.15-1.65-0.23-3.05-0.23h-2.78v8.41h2.13 c0.98,0,1.66-0.08,2.05-0.25c0.39-0.17,0.65-0.42,0.77-0.76c0.12-0.34,0.18-1,0.18-1.99h0.7v6.86h-0.7c0-1.11-0.09-1.86-0.28-2.24 c-0.19-0.38-0.46-0.63-0.82-0.74c-0.36-0.11-0.97-0.17-1.83-0.17h-2.2v4.75c0,2.37,0.15,3.77,0.46,4.19 c0.31,0.42,1.13,0.63,2.47,0.63h1.49c1.05,0,1.92-0.13,2.6-0.41s1.33-0.83,1.94-1.67C311.72,252.94,312.2,251.78,312.56,250.3z"></path> <path class="st0" d="M362.41,236.49l0.16,5h-0.69c-0.14-1.09-0.45-2-0.92-2.71c-0.48-0.71-0.98-1.16-1.5-1.34 c-0.52-0.18-1.4-0.27-2.65-0.27h-3.92v8.5h1.88c1.21,0,2.02-0.2,2.42-0.61c0.4-0.41,0.6-1.23,0.6-2.46h0.74v7.07h-0.74 c0-0.86-0.09-1.54-0.26-2.03c-0.17-0.5-0.43-0.84-0.77-1.02c-0.34-0.18-1-0.27-1.99-0.27h-1.88v4.98c0,1.58,0.04,2.61,0.12,3.1 c0.08,0.49,0.28,0.85,0.6,1.09c0.32,0.24,0.94,0.35,1.86,0.35h0.68v0.68h-9.31v-0.68h0.62c0.86,0,1.45-0.11,1.78-0.33 c0.33-0.22,0.54-0.55,0.64-1.01c0.09-0.46,0.14-1.52,0.14-3.2v-9.83c0-1.6-0.05-2.63-0.14-3.09c-0.09-0.46-0.29-0.78-0.59-0.96 c-0.3-0.18-0.96-0.27-1.97-0.27h-0.35v-0.68H362.41z"></path> <path class="st0" d="M390.81,236.49h6.69v0.68c-0.89,0.06-1.55,0.26-1.99,0.6c-0.44,0.34-0.71,0.72-0.8,1.15 c-0.1,0.42-0.15,1.25-0.15,2.47v6.67c0,1.7-0.07,2.97-0.2,3.8c-0.13,0.83-0.52,1.64-1.15,2.44c-0.64,0.8-1.53,1.43-2.68,1.91 c-1.15,0.47-2.48,0.71-3.99,0.71c-1.78,0-3.29-0.3-4.53-0.91c-1.24-0.61-2.12-1.39-2.65-2.35c-0.53-0.96-0.79-2.25-0.79-3.87 l0.01-2.05v-6.24c0-1.6-0.05-2.63-0.14-3.09c-0.09-0.46-0.29-0.78-0.59-0.96c-0.3-0.18-0.96-0.27-1.97-0.27h-0.46v-0.68h9.15v0.68 h-0.4c-0.99,0-1.63,0.08-1.94,0.24c-0.31,0.16-0.51,0.47-0.61,0.91c-0.1,0.44-0.15,1.5-0.15,3.16v6.31c0,2.19,0.1,3.74,0.3,4.66 c0.2,0.92,0.77,1.72,1.71,2.4c0.94,0.69,2.18,1.03,3.74,1.03c1.22,0,2.33-0.23,3.33-0.69c1-0.46,1.74-1.03,2.23-1.72 c0.49-0.69,0.79-1.39,0.89-2.11c0.11-0.72,0.16-1.86,0.16-3.42v-6.83c0-1.13-0.06-1.93-0.19-2.38c-0.13-0.45-0.4-0.81-0.83-1.08 c-0.42-0.27-1.09-0.43-2.01-0.49V236.49z"></path> <path class="st0" d="M428.9,257l-14.18-18.79v13.91c0,1.15,0.06,1.91,0.17,2.28c0.11,0.36,0.44,0.7,0.97,1 c0.53,0.31,1.33,0.46,2.39,0.46v0.68h-7.48v-0.68c0.96-0.07,1.68-0.24,2.19-0.52c0.5-0.28,0.8-0.58,0.89-0.91 c0.09-0.33,0.14-1.09,0.14-2.31v-10.63c0-1.54-0.07-2.57-0.22-3.09c-0.14-0.52-0.37-0.86-0.68-1.01c-0.31-0.15-1-0.22-2.08-0.22 v-0.68h5.91l11.87,15.68v-11.99c0-0.89-0.09-1.51-0.27-1.86c-0.18-0.35-0.55-0.63-1.12-0.84c-0.56-0.21-1.24-0.31-2.02-0.31v-0.68 h7.27v0.68c-0.85,0.07-1.52,0.23-2,0.49c-0.49,0.26-0.8,0.56-0.93,0.92c-0.13,0.36-0.2,0.97-0.2,1.83V257H428.9z"></path> <path class="st0" d="M462.36,250.3h0.71l-0.43,6.24h-16.6v-0.68h0.41c0.99,0,1.64-0.13,1.93-0.4c0.29-0.27,0.47-0.6,0.55-1.01 c0.08-0.41,0.12-1.45,0.12-3.13v-9.83c0-1.53-0.04-2.53-0.13-3.02c-0.08-0.48-0.28-0.82-0.58-1.01c-0.3-0.19-0.93-0.29-1.9-0.29 v-0.68h14.32l0.47,5h-0.7c-0.31-1.4-0.7-2.39-1.16-2.98c-0.46-0.59-1-0.96-1.63-1.11c-0.63-0.15-1.65-0.23-3.05-0.23h-2.78v8.41 h2.13c0.98,0,1.66-0.08,2.05-0.25c0.39-0.17,0.65-0.42,0.77-0.76c0.12-0.34,0.18-1,0.18-1.99h0.69v6.86h-0.69 c0-1.11-0.09-1.86-0.28-2.24c-0.19-0.38-0.46-0.63-0.82-0.74c-0.36-0.11-0.97-0.17-1.83-0.17h-2.2v4.75 c0,2.37,0.15,3.77,0.46,4.19c0.31,0.42,1.13,0.63,2.47,0.63h1.49c1.05,0,1.92-0.13,2.6-0.41c0.68-0.27,1.33-0.83,1.94-1.67 C461.51,252.94,462,251.78,462.36,250.3z"></path> <path class="st0" d="M486.64,245.75c2.28,0.17,3.97,0.73,5.07,1.7c1.1,0.97,1.66,2.17,1.66,3.62c0,1.26-0.37,2.35-1.12,3.26 c-0.75,0.91-1.71,1.51-2.87,1.79c-1.17,0.28-2.73,0.42-4.69,0.42h-7.86v-0.68h0.77c0.86,0,1.45-0.11,1.78-0.33 c0.33-0.22,0.54-0.55,0.63-1.01c0.09-0.46,0.13-1.52,0.13-3.2v-9.76c0-1.63-0.05-2.67-0.14-3.15c-0.09-0.47-0.29-0.8-0.59-0.98 c-0.3-0.18-0.96-0.27-1.97-0.27h-0.38v-0.68l3.3-0.09l3.75-0.12c5.48,0,8.22,1.58,8.22,4.73c0,1.3-0.47,2.35-1.41,3.13 C489.95,244.94,488.54,245.47,486.64,245.75z M483.02,245.47c0.25,0.01,0.45,0.02,0.62,0.02c2.13,0,3.58-0.34,4.36-1.01 c0.78-0.67,1.17-1.75,1.17-3.25c0-1.05-0.15-1.85-0.46-2.42c-0.31-0.57-0.76-1.01-1.37-1.32c-0.61-0.31-1.66-0.47-3.13-0.47 c-0.38,0-0.78,0.02-1.18,0.04V245.47z M483.02,246.19v4.46c0,1.9,0.03,3.11,0.1,3.62c0.07,0.51,0.25,0.9,0.55,1.17 c0.3,0.27,0.89,0.4,1.78,0.4c1.58,0,2.76-0.4,3.55-1.21c0.79-0.81,1.18-2.02,1.18-3.64c0-1.66-0.45-2.87-1.34-3.66 c-0.89-0.78-2.46-1.18-4.71-1.18C483.79,246.16,483.42,246.17,483.02,246.19z"></path> <path class="st0" d="M528.83,256.54h-5.4c-0.96-0.67-2.42-2.42-4.39-5.26c-0.63-0.91-1.29-1.78-1.97-2.61 c-0.68-0.83-1.15-1.34-1.4-1.52c-0.26-0.18-0.65-0.27-1.2-0.27h-0.8v4.45c0,1.58,0.04,2.61,0.11,3.1 c0.07,0.49,0.27,0.85,0.59,1.09c0.32,0.24,0.93,0.35,1.84,0.35h0.96v0.68h-9.59v-0.68h0.65c0.86,0,1.45-0.11,1.78-0.33 c0.33-0.22,0.54-0.55,0.63-1.01c0.09-0.46,0.13-1.52,0.13-3.2v-9.83c0-1.6-0.04-2.63-0.13-3.09c-0.09-0.46-0.29-0.78-0.59-0.96 c-0.31-0.18-0.97-0.27-1.98-0.27h-0.34v-0.68l2.87-0.15c1.91-0.09,3.43-0.13,4.55-0.13c1.91,0,3.47,0.18,4.66,0.53 c1.2,0.35,2.17,0.94,2.9,1.74c0.74,0.81,1.11,1.77,1.11,2.9c0,1.31-0.48,2.43-1.45,3.36c-0.97,0.93-2.39,1.5-4.26,1.73 c0.84,0.4,2.19,1.86,4.05,4.37c1.52,2.04,2.71,3.38,3.58,4.01c0.87,0.63,1.89,0.97,3.07,1V256.54z M513.68,246.19 c0.74-0.02,1.5-0.05,2.29-0.09c0.79-0.04,1.47-0.15,2.06-0.33c0.58-0.18,1.05-0.44,1.41-0.78c0.36-0.34,0.64-0.79,0.85-1.34 c0.21-0.55,0.31-1.23,0.31-2.04c0-1.41-0.35-2.54-1.06-3.38c-0.7-0.85-2.24-1.27-4.6-1.27c-0.36,0-0.78,0.02-1.26,0.06V246.19z"></path> <path class="st0" d="M541.79,237.17v-0.68h9.16v0.68h-0.43c-0.99,0-1.63,0.08-1.94,0.24c-0.31,0.16-0.51,0.47-0.61,0.91 c-0.1,0.44-0.15,1.5-0.15,3.16v9.83c0,1.58,0.04,2.61,0.11,3.1c0.07,0.49,0.27,0.85,0.59,1.09c0.32,0.24,0.93,0.35,1.84,0.35h0.59 v0.68h-9.16v-0.68h0.59c0.86,0,1.45-0.11,1.78-0.33c0.33-0.22,0.54-0.55,0.63-1.01c0.09-0.46,0.13-1.52,0.13-3.2v-9.83 c0-1.6-0.04-2.63-0.13-3.09c-0.09-0.46-0.29-0.78-0.59-0.96c-0.31-0.18-0.97-0.27-1.98-0.27H541.79z"></path> <path class="st0" d="M584.21,236.66l3.3-0.16c2.75-0.14,4.6-0.21,5.56-0.21c2.98,0,5.3,0.45,6.96,1.36 c1.66,0.91,2.9,2.14,3.72,3.69c0.81,1.55,1.22,3.34,1.22,5.37c0,1.47-0.22,2.81-0.67,4.03c-0.44,1.22-1.05,2.23-1.83,3.03 c-0.77,0.8-1.67,1.41-2.69,1.83c-1.02,0.42-1.99,0.68-2.9,0.78c-0.92,0.1-2.21,0.16-3.87,0.16h-8.88v-0.68h0.83 c0.86,0,1.45-0.11,1.78-0.33c0.33-0.22,0.54-0.55,0.63-1.01c0.09-0.46,0.14-1.52,0.14-3.2v-9.67c0-1.6-0.05-2.63-0.14-3.1 c-0.09-0.47-0.29-0.79-0.59-0.96c-0.3-0.17-0.96-0.26-1.97-0.26h-0.59V236.66z M590.39,237.07v13.39c0,1.98,0.04,3.26,0.11,3.83 c0.07,0.57,0.29,0.97,0.67,1.21c0.37,0.23,1.15,0.35,2.34,0.35c1.74,0,3.18-0.24,4.3-0.72c1.12-0.48,2.06-1.42,2.82-2.82 s1.13-3.2,1.13-5.37c0-1.7-0.22-3.21-0.66-4.54s-1.07-2.41-1.88-3.24c-0.82-0.83-1.72-1.4-2.72-1.7c-0.99-0.3-2.27-0.45-3.83-0.45 C591.92,237,591.16,237.02,590.39,237.07z"></path> <path class="st0" d="M629.73,249.15h-7.61l-0.52,1.27c-0.77,1.84-1.15,3.04-1.15,3.61c0,0.6,0.2,1.06,0.61,1.37 c0.41,0.31,0.93,0.47,1.57,0.47v0.68h-5.96v-0.68c0.89-0.14,1.55-0.45,1.98-0.94c0.43-0.49,0.96-1.52,1.57-3.08 c0.05-0.15,0.29-0.72,0.71-1.71l5.82-13.91h0.58l6.7,15.92l0.92,2.1c0.21,0.47,0.49,0.84,0.83,1.12c0.35,0.27,0.87,0.44,1.57,0.51 v0.68h-7.88v-0.68c0.97,0,1.62-0.07,1.96-0.21s0.51-0.43,0.51-0.85c0-0.22-0.23-0.86-0.68-1.94L629.73,249.15z M629.48,248.48 l-3.55-8.54l-3.53,8.54H629.48z"></path> <path class="st0" d="M667.31,250.64l-0.15,5.9h-17.03v-0.68h0.59c0.86,0,1.45-0.11,1.78-0.33c0.33-0.22,0.54-0.55,0.63-1.01 c0.09-0.46,0.14-1.52,0.14-3.2v-9.83c0-1.6-0.05-2.63-0.14-3.09c-0.09-0.46-0.29-0.78-0.59-0.96c-0.3-0.18-0.96-0.27-1.97-0.27 h-0.44v-0.68h9.62v0.68h-0.89c-0.99,0-1.63,0.08-1.94,0.24c-0.31,0.16-0.51,0.47-0.61,0.91c-0.1,0.44-0.15,1.5-0.15,3.16v10.5 c0,1.45,0.04,2.35,0.12,2.72c0.08,0.36,0.29,0.65,0.64,0.85c0.35,0.2,1.1,0.3,2.25,0.3h1.52c1.23,0,2.15-0.11,2.74-0.33 c0.6-0.22,1.16-0.69,1.7-1.42c0.54-0.73,1.03-1.89,1.47-3.47H667.31z"></path> <path class="st0" d="M707.46,236.69h0.65v15.7c0,1.29,0.02,2.1,0.05,2.44c0.03,0.34,0.17,0.59,0.42,0.77 c0.25,0.18,0.69,0.27,1.32,0.27h0.58v0.68h-6.65v-0.68h0.49c0.71,0,1.17-0.1,1.38-0.3c0.21-0.2,0.34-0.44,0.37-0.72 c0.04-0.28,0.05-1.1,0.05-2.45v-10.52c0-1.33-0.02-2.14-0.04-2.42c-0.03-0.28-0.16-0.53-0.38-0.74c-0.22-0.21-0.68-0.32-1.38-0.32 h-0.64v-0.68C705.38,237.68,706.64,237.34,707.46,236.69z"></path> <path class="st0" d="M737.81,247.19c-0.6,0.73-1.24,1.28-1.92,1.64c-0.68,0.36-1.39,0.55-2.14,0.55c-1.6,0-2.97-0.6-4.13-1.81 c-1.16-1.21-1.74-2.71-1.74-4.52c0-1.71,0.56-3.2,1.68-4.47s2.56-1.9,4.3-1.9c1.48,0,2.73,0.47,3.74,1.4s1.73,2.11,2.14,3.51 c0.41,1.4,0.61,2.87,0.61,4.38c0,3.12-0.69,5.75-2.06,7.86c-1.37,2.12-3.22,3.18-5.52,3.18c-1.08,0-2.04-0.24-2.87-0.71 c-0.83-0.47-1.24-1-1.24-1.58c0-0.55,0.29-0.83,0.86-0.83c0.48,0,0.9,0.33,1.24,0.99c0.47,0.93,1.28,1.39,2.41,1.39 c1.56,0,2.73-0.69,3.5-2.08c0.78-1.38,1.17-3.46,1.17-6.22C737.84,247.77,737.83,247.5,737.81,247.19z M737.88,243.26 c0-0.96-0.13-1.9-0.4-2.85c-0.27-0.94-0.71-1.68-1.34-2.22c-0.63-0.54-1.34-0.81-2.11-0.81c-1.23,0-2.16,0.49-2.77,1.47 c-0.62,0.98-0.92,2.46-0.92,4.43c0,1.24,0.12,2.21,0.35,2.9c0.24,0.7,0.66,1.27,1.28,1.74c0.61,0.46,1.3,0.69,2.06,0.69 c1.02,0,1.92-0.39,2.7-1.16C737.5,246.68,737.88,245.28,737.88,243.26z"></path> <path class="st0" d="M757.81,246.37h-0.77l0.44-9.19h7.67c-0.42,1-0.73,1.57-0.92,1.73c-0.19,0.16-0.52,0.24-1,0.24h-5.19 l-0.24,6.12c0.99-1.27,2.22-1.91,3.67-1.91c1.54,0,2.85,0.62,3.94,1.85c1.09,1.23,1.63,2.76,1.63,4.58c0,2.1-0.61,3.83-1.84,5.2 c-1.23,1.37-2.94,2.05-5.15,2.05c-1.54,0-2.73-0.36-3.59-1.07c-0.86-0.71-1.28-1.36-1.28-1.94c0-0.26,0.09-0.48,0.26-0.67 c0.17-0.19,0.41-0.28,0.7-0.28c0.33,0,0.57,0.1,0.74,0.29c0.17,0.19,0.36,0.59,0.59,1.19c0.44,1.22,1.33,1.83,2.65,1.83 c1.26,0,2.32-0.51,3.19-1.52c0.86-1.01,1.29-2.67,1.29-4.95c0-2.06-0.35-3.52-1.06-4.39c-0.71-0.87-1.55-1.3-2.51-1.3 C759.66,244.21,758.59,244.93,757.81,246.37z"></path> <path class="st0" d="M792.3,247.19c-0.6,0.73-1.24,1.28-1.92,1.64c-0.68,0.36-1.39,0.55-2.14,0.55c-1.6,0-2.97-0.6-4.13-1.81 c-1.16-1.21-1.74-2.71-1.74-4.52c0-1.71,0.56-3.2,1.68-4.47s2.56-1.9,4.3-1.9c1.48,0,2.73,0.47,3.74,1.4 c1.01,0.94,1.73,2.11,2.14,3.51c0.41,1.4,0.61,2.87,0.61,4.38c0,3.12-0.69,5.75-2.06,7.86c-1.37,2.12-3.22,3.18-5.52,3.18 c-1.08,0-2.04-0.24-2.87-0.71c-0.83-0.47-1.24-1-1.24-1.58c0-0.55,0.29-0.83,0.86-0.83c0.48,0,0.9,0.33,1.24,0.99 c0.47,0.93,1.28,1.39,2.41,1.39c1.56,0,2.73-0.69,3.5-2.08c0.78-1.38,1.17-3.46,1.17-6.22 C792.33,247.77,792.32,247.5,792.3,247.19z M792.37,243.26c0-0.96-0.13-1.9-0.4-2.85c-0.27-0.94-0.71-1.68-1.34-2.22 c-0.63-0.54-1.34-0.81-2.11-0.81c-1.23,0-2.16,0.49-2.77,1.47c-0.62,0.98-0.92,2.46-0.92,4.43c0,1.24,0.12,2.21,0.35,2.9 c0.24,0.7,0.66,1.27,1.28,1.74c0.61,0.46,1.3,0.69,2.06,0.69c1.02,0,1.92-0.39,2.7-1.16 C791.99,246.68,792.37,245.28,792.37,243.26z"></path> </g> <g> <path class="st1" d="M439.1,161.16c-0.49,0-0.97-0.27-1.21-0.73c-0.35-0.67-0.09-1.49,0.58-1.84 c13.22-6.88,25.07-17.97,33.37-31.24c0.25-0.4,0.68-0.64,1.15-0.64l61.29-0.28c0,0,0,0,0.01,0c0.75,0,1.36,0.61,1.36,1.36 c0,0.75-0.61,1.37-1.36,1.37l-60.54,0.27c-8.53,13.39-20.59,24.59-34.02,31.58C439.52,161.11,439.31,161.16,439.1,161.16z"></path> <path class="st1" d="M393.13,161.16c-0.21,0-0.43-0.05-0.63-0.15c-13.51-7.03-25.64-18.3-34.23-31.78l-60.92-0.28 c-0.75,0-1.36-0.62-1.36-1.37c0-0.75,0.61-1.36,1.36-1.36c0,0,0,0,0.01,0l61.67,0.28c0.47,0,0.9,0.24,1.15,0.64 c8.35,13.35,20.28,24.52,33.58,31.44c0.67,0.35,0.93,1.17,0.58,1.84C394.1,160.9,393.63,161.16,393.13,161.16z"></path> <path class="st1" d="M415.94,160.61h-0.12c-0.14,0-0.28-0.02-0.41-0.06c-18.4-5.85-33.55-16.84-43.79-31.8 c-8.23-12.02-12.95-26.12-12.95-38.7V34.38c0-0.75,0.61-1.36,1.36-1.36c27.55,0,50.83,31.78,50.83,69.39 c0,16.66-4.93,33.53-13.55,46.52c6.39,4.05,12.84,7.04,18.58,8.9c5.73-1.86,12.17-4.84,18.55-8.89 c-8.63-13-13.56-29.87-13.56-46.54c0-37.61,23.28-69.39,50.83-69.39c0.75,0,1.4,0.61,1.4,1.36v55.67 c0,12.58-4.72,26.68-12.95,38.7c-10.25,14.96-25.39,25.95-43.79,31.8C416.22,160.59,416.08,160.61,415.94,160.61z M470.37,35.77 c-25.51,1.04-46.78,31.13-46.78,66.63c0,16.15,4.77,32.48,13.12,45.05c17.35-11.72,33.66-31.29,33.66-57.4V35.77z M361.39,35.77 v54.28c0,26.1,16.29,45.66,33.63,57.38c8.34-12.56,13.11-28.88,13.11-45.03C408.13,66.9,386.86,36.82,361.39,35.77z"></path> <path class="st1" d="M415.83,159.77c-0.33,0-0.67-0.12-0.93-0.37c-0.3-0.28-29.66-28.07-29.66-62.36 c0-34.27,29.09-62.52,29.38-62.8c0.52-0.5,1.35-0.51,1.88-0.01c0.3,0.28,29.84,28.53,29.84,62.81c0,34.28-29.29,62.08-29.58,62.36 C416.5,159.64,416.16,159.77,415.83,159.77z M415.58,37.16c-4.93,5.11-27.61,30.23-27.61,59.88c0,29.69,22.91,54.45,27.86,59.44 c4.94-5.01,27.79-29.78,27.79-59.44C443.62,67.36,420.57,42.25,415.58,37.16z"></path> </g> </g> </svg> 